<?xml version="1.0" encoding="UTF-8" standalone="no"?>
<svg
   xmlns:dc="http://purl.org/dc/elements/1.1/"
   xmlns:cc="http://creativecommons.org/ns#"
   xmlns:rdf="http://www.w3.org/1999/02/22-rdf-syntax-ns#"
   xmlns:svg="http://www.w3.org/2000/svg"
   xmlns="http://www.w3.org/2000/svg"
   xmlns:sodipodi="http://sodipodi.sourceforge.net/DTD/sodipodi-0.dtd"
   xmlns:inkscape="http://www.inkscape.org/namespaces/inkscape"
   viewBox="0 0 236 85"
   height="85"
   width="236"
   xml:space="preserve"
   id="svg2"
   version="1.1"
   sodipodi:docname="kitleoyun-logo.svg"
   inkscape:version="0.92.4 (5da689c313, 2019-01-14)"
   inkscape:export-filename="D:\artspace\ko-art\kitleoyun-logo.png"
   inkscape:export-xdpi="96"
   inkscape:export-ydpi="96"><sodipodi:namedview
   pagecolor="#ffffff"
   bordercolor="#666666"
   borderopacity="1"
   objecttolerance="10"
   gridtolerance="10"
   guidetolerance="10"
   inkscape:pageopacity="0"
   inkscape:pageshadow="2"
   inkscape:window-width="1920"
   inkscape:window-height="1057"
   id="namedview25"
   showgrid="false"
   inkscape:zoom="3.397309"
   inkscape:cx="7.1992278"
   inkscape:cy="35.25222"
   inkscape:window-x="-8"
   inkscape:window-y="-8"
   inkscape:window-maximized="1"
   inkscape:current-layer="svg2" /><metadata
   id="metadata8"><rdf:RDF><cc:Work
       rdf:about=""><dc:format>image/svg+xml</dc:format><dc:type
         rdf:resource="http://purl.org/dc/dcmitype/StillImage" /><dc:title></dc:title></cc:Work></rdf:RDF></metadata><defs
   id="defs6"><clipPath
     id="clipPath18"
     clipPathUnits="userSpaceOnUse"><path
       id="path16"
       d="M 0,64 H 177.333 V 0 H 0 Z"
       inkscape:connector-curvature="0" /></clipPath></defs><g
   aria-label="KitleOyun"
   style="font-style:normal;font-variant:normal;font-weight:normal;font-stretch:normal;font-size:74.66666412px;line-height:1.25;font-family:PaintyPaint;-inkscape-font-specification:'PaintyPaint, Normal';font-variant-ligatures:normal;font-variant-caps:normal;font-variant-numeric:normal;font-feature-settings:normal;text-align:start;letter-spacing:0px;word-spacing:0px;writing-mode:lr-tb;text-anchor:start;fill:#28d223;fill-opacity:1;stroke:none"
   id="text4537"><path
     sodipodi:type="inkscape:offset"
     inkscape:radius="0"
     inkscape:original="M 123.24609 1.3652344 C 123.04698 1.3652344 122.82311 1.8882604 122.57422 2.9335938 C 122.37511 3.9291493 122.05152 4.5030104 121.60352 4.6523438 C 121.35463 4.4034548 121.23047 4.1287447 121.23047 3.8300781 C 121.23047 3.630967 121.35463 3.307375 121.60352 2.859375 C 121.85243 2.3615973 121.95214 1.9627292 121.90234 1.6640625 C 121.35479 2.0125069 120.83176 2.734967 120.33398 3.8300781 C 119.73665 5.0745225 119.26446 5.8458646 118.91602 6.1445312 L 118.91602 7.265625 C 118.91602 7.3154028 118.71658 7.5637188 118.31836 8.0117188 C 118.11925 8.2606077 117.89537 8.3847656 117.64648 8.3847656 C 117.5967 9.4798768 118.02002 10.226778 118.91602 10.625 C 119.4138 9.7290001 120.3093 9.3545729 121.60352 9.5039062 C 121.85241 8.7572397 122.20044 8.3847656 122.64844 8.3847656 C 122.79777 8.3847656 123.09692 8.4844827 123.54492 8.6835938 C 123.99292 8.8329271 124.34096 8.9082031 124.58984 8.9082031 C 124.78896 8.9082031 124.98839 8.857368 125.1875 8.7578125 C 125.48617 9.2555902 126.25751 9.6036232 127.50195 9.8027344 C 128.49751 10.001846 129.04497 10.524872 129.14453 11.371094 C 131.33475 12.665316 133.1277 14.781861 134.52148 17.71875 L 137.65625 25.632812 C 137.95492 25.334143 138.17879 25.209986 138.32812 25.259766 C 139.07479 28.196655 139.6467 31.880325 140.04492 36.310547 C 140.34359 40.143436 140.64274 43.951264 140.94141 47.734375 C 141.24007 51.069486 139.14992 53.831262 134.66992 56.021484 L 134.37109 55.648438 C 136.06354 53.906215 137.38235 51.765229 138.32812 49.226562 C 137.73079 46.687896 137.30749 42.108726 137.05859 35.488281 C 136.80971 29.365615 136.2378 24.83728 135.3418 21.900391 C 133.9978 17.320835 131.48433 13.934363 127.80078 11.744141 L 131.08594 15.925781 C 131.13572 16.075115 131.25988 16.32343 131.45898 16.671875 C 131.6581 17.02032 131.75781 17.29503 131.75781 17.494141 C 131.75781 17.74303 131.63365 17.966905 131.38477 18.166016 L 129.74219 16.298828 C 131.38485 17.543272 132.33119 19.635377 132.58008 22.572266 C 132.92852 26.853155 133.20128 29.242457 133.40039 29.740234 C 133.20128 30.636234 133.10156 31.556175 133.10156 32.501953 C 133.10156 33.597064 133.25211 35.190583 133.55078 37.28125 C 133.84945 39.371917 133.99805 40.89016 133.99805 41.835938 C 133.99805 43.827048 133.57474 45.544725 132.72852 46.988281 C 130.58807 48.282503 128.29849 48.929688 125.85938 48.929688 C 124.06738 48.929688 122.52469 48.53082 121.23047 47.734375 C 119.1398 46.091708 117.62156 43.751288 116.67578 40.714844 C 116.02867 38.77351 115.4812 35.861182 115.0332 31.978516 C 116.02876 26.05496 116.60067 22.894316 116.75 22.496094 C 117.79533 19.011649 119.61273 16.945939 122.20117 16.298828 C 123.39584 15.651717 123.99219 14.756217 123.99219 13.611328 C 123.99219 13.362439 123.94331 13.114123 123.84375 12.865234 C 122.8482 11.720346 122.1013 11.097602 121.60352 10.998047 C 120.25952 12.391824 118.91431 13.761469 117.57031 15.105469 C 115.97743 16.897469 114.90888 18.53987 114.36133 20.033203 C 113.16666 21.028758 112.36893 22.819758 111.9707 25.408203 C 111.5227 28.793092 111.12578 30.858802 110.77734 31.605469 C 110.57823 31.705024 110.35436 31.631701 110.10547 31.382812 C 109.90636 31.084148 109.80664 30.909155 109.80664 30.859375 C 109.65731 29.117153 109.93007 27.175601 110.62695 25.035156 L 112.41992 19.660156 C 111.27504 21.3526 110.42841 23.591351 109.88086 26.378906 C 109.7813 26.727351 109.40687 29.240811 108.75977 33.919922 C 108.70999 42.9297 110.67794 49.301824 114.66016 53.035156 C 121.08149 57.465379 126.65587 59.83024 131.38477 60.128906 C 137.60699 59.282684 141.88701 56.669507 144.22656 52.289062 C 145.96879 49.551284 146.83984 46.215647 146.83984 42.283203 C 146.83984 38.350758 145.62075 32.552496 143.18164 24.886719 C 141.24031 21.103608 139.27432 17.320221 137.2832 13.537109 C 134.79432 9.1068876 132.08142 5.8954079 129.14453 3.9042969 C 128.64675 4.6509635 128.02401 5.0253906 127.27734 5.0253906 C 126.87912 5.0253906 126.25834 4.9012326 125.41211 4.6523438 C 124.56589 4.3536768 123.94314 4.2275658 123.54492 4.2773438 L 123.84766 3.9238281 L 123.24609 4.2773438 C 122.94741 3.9288994 122.82325 3.6805833 122.87305 3.53125 C 122.9726 2.8841389 123.34507 2.4363889 123.99219 2.1875 C 124.48996 2.0381667 124.98855 1.8631736 125.48633 1.6640625 L 124.81445 1.5898438 C 124.51579 1.5898438 124.31635 1.7403958 124.2168 2.0390625 C 123.81857 1.5910625 123.49498 1.3652344 123.24609 1.3652344 z M 123.84766 3.9238281 L 124.51562 3.53125 C 124.31652 3.481472 124.14152 3.556748 123.99219 3.7558594 L 123.84766 3.9238281 z M 3.6484375 4.4277344 C 2.5533264 6.5681787 2.0058594 9.3563494 2.0058594 12.791016 C 2.0058594 14.284349 2.1055764 15.951191 2.3046875 17.792969 C 2.1055764 20.232079 2.0058594 23.144408 2.0058594 26.529297 L 2.0058594 30.560547 L 2.0058594 34.443359 C 2.0058594 39.869137 1.6578264 44.324149 0.9609375 47.808594 C 1.0107153 48.455705 0.95988021 49.450923 0.81054688 50.794922 C 0.71099132 52.138922 0.66210938 53.109698 0.66210938 53.707031 C 0.66210938 55.349698 0.98570141 56.668506 1.6328125 57.664062 C 2.180368 58.410729 2.6281181 58.785156 2.9765625 58.785156 C 3.3747848 58.785156 3.8469757 58.286572 4.3945312 57.291016 C 4.9918645 56.245682 5.4904497 55.673774 5.8886719 55.574219 C 5.8886719 55.524441 5.2659288 55.200849 4.0214844 54.603516 C 3.2748178 54.255072 2.8026268 53.756486 2.6035156 53.109375 C 3.9475156 43.950264 4.6191406 37.952568 4.6191406 35.115234 L 5.2910156 34.369141 C 5.5896823 34.269585 6.0129913 34.517901 6.5605469 35.115234 C 7.1081024 36.459234 7.3319774 38.101635 7.2324219 40.042969 C 7.1328663 39.694524 7.3567413 39.222333 7.9042969 38.625 C 8.4518524 39.222333 8.6757274 39.694524 8.5761719 40.042969 C 9.422394 40.092747 10.39317 40.764372 11.488281 42.058594 C 12.732726 43.502149 13.727943 44.348768 14.474609 44.597656 C 18.805276 48.380768 22.189796 50.845346 24.628906 51.990234 C 25.126684 51.791123 25.425835 51.343373 25.525391 50.646484 C 25.624946 49.899818 25.875215 49.425673 26.273438 49.226562 C 27.11966 50.62034 27.667127 51.79055 27.916016 52.736328 L 29.558594 51.318359 C 29.608374 51.169026 29.632813 51.044868 29.632812 50.945312 C 29.632812 50.696423 29.508655 50.446154 29.259766 50.197266 C 28.861546 49.848822 28.637671 49.624947 28.587891 49.525391 C 27.94078 47.783169 28.040497 46.614911 28.886719 46.017578 C 29.334719 46.166911 29.558594 46.687984 29.558594 47.583984 C 29.558594 48.430206 29.882186 48.853516 30.529297 48.853516 C 30.529297 48.256182 30.653455 47.908149 30.902344 47.808594 C 30.802788 47.709038 29.034276 45.594447 25.599609 41.462891 C 23.508943 38.974002 21.54295 37.20549 19.701172 36.160156 C 15.71895 30.883712 13.305206 27.350594 12.458984 25.558594 L 15.744141 21.003906 C 15.893474 19.510574 16.615934 17.892613 17.910156 16.150391 L 21.044922 11.820312 L 21.34375 12.193359 C 21.592639 12.193359 21.867349 12.018367 22.166016 11.669922 C 22.46468 11.321478 22.639673 11.148438 22.689453 11.148438 C 22.341008 11.297771 21.991022 11.17166 21.642578 10.773438 L 21.044922 10.027344 C 18.307145 13.611344 16.341151 16.324238 15.146484 18.166016 C 14.399818 19.460238 13.032127 21.153475 11.041016 23.244141 C 8.9005714 25.533919 7.5309271 27.125484 6.9335938 28.021484 C 6.5353715 28.170818 6.1120624 28.121936 5.6640625 27.873047 C 5.0169516 27.524602 4.6689186 27.349609 4.6191406 27.349609 C 7.7551405 22.023387 11.263818 16.847868 15.146484 11.820312 C 14.549151 12.069201 13.901967 12.689992 13.205078 13.685547 C 12.557967 14.681103 11.986059 15.352728 11.488281 15.701172 C 10.691837 16.298505 10.14437 16.597656 9.8457031 16.597656 C 9.4474809 16.597656 9.1238889 16.298505 8.875 15.701172 C 9.0741111 16.696728 8.7505191 17.518905 7.9042969 18.166016 C 6.7096302 15.776682 6.1132812 13.686531 6.1132812 11.894531 C 6.1132813 11.396754 6.1621632 10.898169 6.2617188 10.400391 C 5.7639409 9.9523908 5.391467 8.8818975 5.1425781 7.1894531 C 4.943467 5.7458977 4.4448819 4.8259566 3.6484375 4.4277344 z M 74.849609 4.5761719 C 73.605165 7.9112829 72.734105 11.869663 72.236328 16.449219 C 71.937661 19.137219 71.689346 23.368356 71.490234 29.142578 L 72.162109 32.949219 L 71.490234 33.697266 C 71.490234 33.747044 71.665227 34.219234 72.013672 35.115234 C 72.212783 35.712568 72.261665 36.260034 72.162109 36.757812 C 72.012776 38.201368 72.063611 40.094038 72.3125 42.433594 C 72.611165 46.067372 72.784204 48.006971 72.833984 48.255859 C 72.186876 48.902971 71.838842 49.849306 71.789062 51.09375 L 71.789062 54.378906 C 71.988173 55.225129 72.610917 55.872313 73.65625 56.320312 C 74.701583 56.768313 75.322373 57.415497 75.521484 58.261719 C 75.571262 57.963052 75.870413 57.142828 76.417969 55.798828 C 76.766413 54.803273 76.941406 53.956655 76.941406 53.259766 C 76.941406 52.861544 76.915014 52.487117 76.865234 52.138672 C 76.317679 53.333339 75.869929 54.08024 75.521484 54.378906 C 74.924151 53.532684 74.924151 51.890283 75.521484 49.451172 C 75.421929 49.749839 75.297771 50.097872 75.148438 50.496094 C 75.048882 50.84454 74.825007 50.995093 74.476562 50.945312 C 74.426782 50.497312 74.402344 50.023169 74.402344 49.525391 C 74.402344 48.529835 74.577337 47.235467 74.925781 45.642578 C 75.473335 43.551911 75.770533 42.259497 75.820312 41.761719 C 76.168756 43.553719 76.292915 44.945851 76.193359 45.941406 L 76.865234 39.820312 C 76.865234 40.019424 77.040227 41.214075 77.388672 43.404297 C 77.587783 44.798074 77.638618 45.917449 77.539062 46.763672 L 77.835938 46.763672 C 77.885715 45.817894 78.011826 44.248816 78.210938 42.058594 C 78.410049 40.067482 78.509766 38.524798 78.509766 37.429688 C 78.509766 36.085687 78.410049 34.842155 78.210938 33.697266 C 78.808271 33.348822 78.95687 32.726078 78.658203 31.830078 C 78.409314 30.934078 78.48459 30.286894 78.882812 29.888672 C 78.385032 24.413116 78.161158 20.580847 78.210938 18.390625 L 77.539062 17.642578 C 77.588842 16.846133 77.613281 16.025909 77.613281 15.179688 C 77.613281 11.09791 76.691387 7.5628384 74.849609 4.5761719 z M 7.2324219 4.8007812 C 6.983533 5.1492257 6.859375 5.5969757 6.859375 6.1445312 C 6.859375 6.5925313 6.934651 7.1644393 7.0839844 7.8613281 C 7.2194321 8.4934173 7.2725617 8.8594526 7.2851562 9.0820312 C 7.3074459 8.9925825 7.2649857 8.9292261 7.3066406 8.8320312 C 7.5057517 8.4835869 7.6054688 8.2597118 7.6054688 8.1601562 C 7.6054688 7.9610451 7.4813107 7.7616111 7.2324219 7.5625 L 7.9042969 6.890625 C 7.655408 6.6915139 7.53125 6.3434809 7.53125 5.8457031 C 7.53125 5.2981476 7.431533 4.9501146 7.2324219 4.8007812 z M 7.2851562 9.0820312 C 7.2275374 9.313257 7.1606364 9.5490516 7.2324219 9.7285156 C 7.2821999 9.5791823 7.3066406 9.4061423 7.3066406 9.2070312 C 7.3066406 9.1885171 7.2864474 9.1048493 7.2851562 9.0820312 z M 24.332031 4.8007812 C 21.843143 5.8461145 20.198788 6.5930156 19.402344 7.0410156 C 17.660121 8.1361267 16.341312 9.5057708 15.445312 11.148438 L 18.431641 7.9375 C 18.730307 7.9375 19.204451 7.837783 19.851562 7.6386719 C 20.548451 7.389783 21.045083 7.265625 21.34375 7.265625 C 21.891305 7.265625 22.341008 7.4895 22.689453 7.9375 L 25.302734 5.0996094 L 24.332031 4.8007812 z M 51.488281 6.59375 L 51.115234 8.0859375 L 51.115234 16.822266 C 51.065457 20.107599 51.189615 22.944651 51.488281 25.333984 C 50.592281 26.030873 49.297913 26.478623 47.605469 26.677734 C 46.211691 26.876846 44.817605 27.051839 43.423828 27.201172 L 42.378906 28.320312 C 42.72735 30.311423 43.77145 31.829667 45.513672 32.875 L 44.841797 33.623047 C 45.737797 34.22038 47.056605 34.792288 48.798828 35.339844 C 50.740161 35.986955 52.085365 36.534422 52.832031 36.982422 C 54.076476 43.453533 54.8967 49.575387 55.294922 55.349609 C 55.195367 56.594054 55.718393 57.365396 56.863281 57.664062 C 58.157504 58.112063 58.904405 58.710365 59.103516 59.457031 L 58.804688 59.830078 C 58.754909 59.979411 58.854627 60.227728 59.103516 60.576172 C 59.103516 60.128173 59.227673 59.432106 59.476562 58.486328 C 59.725451 57.490773 59.849609 56.819148 59.849609 56.470703 C 59.849609 55.524925 59.377419 54.902182 58.431641 54.603516 C 58.381861 54.454182 58.357422 54.330024 58.357422 54.230469 C 58.357422 53.98158 58.530462 53.70687 58.878906 53.408203 C 59.227349 53.059758 59.426783 52.835883 59.476562 52.736328 C 58.879229 52.736328 58.531197 52.860486 58.431641 53.109375 C 57.734752 48.280931 57.386719 44.623655 57.386719 42.134766 C 57.386719 40.442322 57.510877 38.848802 57.759766 37.355469 C 58.157988 37.803469 58.457139 38.599252 58.65625 39.744141 C 58.954917 41.536141 59.103516 42.482476 59.103516 42.582031 L 58.804688 36.982422 C 60.049132 35.837533 61.742368 34.815922 63.882812 33.919922 C 65.674813 33.173255 67.465812 32.452748 69.257812 31.755859 L 69.257812 31.009766 L 68.884766 31.382812 C 68.834988 31.333033 68.462514 31.333032 67.765625 31.382812 C 67.317625 31.382812 66.994033 31.258655 66.794922 31.009766 L 68.884766 29.068359 L 67.541016 27.947266 L 67.839844 27.574219 C 68.038955 27.474663 68.213948 27.423828 68.363281 27.423828 C 69.06017 27.423828 69.581243 27.973249 69.929688 29.068359 C 70.228354 28.719915 70.378906 28.196889 70.378906 27.5 C 70.378906 26.753333 70.228354 26.279189 69.929688 26.080078 L 69.630859 26.455078 C 69.381971 26.355523 69.257812 25.981096 69.257812 25.333984 C 67.51559 25.085096 65.649314 24.960937 63.658203 24.960938 C 61.71687 24.960938 59.850594 25.085096 58.058594 25.333984 L 57.386719 24.587891 L 55.294922 10.326172 L 54.623047 9.5800781 C 54.573267 9.6298559 54.573267 9.9270538 54.623047 10.474609 C 54.623047 10.773276 54.498889 10.97271 54.25 11.072266 C 54.200222 10.97271 53.70359 10.252203 52.757812 8.9082031 C 52.110701 8.0619809 51.687392 7.2906389 51.488281 6.59375 z M 33.757812 12.714844 C 33.508923 12.864177 33.384766 13.114447 33.384766 13.462891 C 33.384766 13.811335 33.508923 14.059651 33.757812 14.208984 L 31.369141 15.626953 C 31.219807 16.174508 31.144531 16.697534 31.144531 17.195312 C 31.144531 19.435313 32.239465 21.501023 34.429688 23.392578 C 35.027021 23.392578 35.973356 23.640895 37.267578 24.138672 C 38.5618 24.63645 39.508135 24.886719 40.105469 24.886719 C 41.101024 24.886719 41.945689 24.388133 42.642578 23.392578 C 42.742133 22.8948 42.792969 22.398169 42.792969 21.900391 C 42.792969 19.610613 41.822193 17.294633 39.880859 14.955078 C 38.984859 14.208411 38.162682 13.835937 37.416016 13.835938 C 37.017794 13.835937 36.694202 13.960096 36.445312 14.208984 C 36.246202 13.711206 35.849286 13.363173 35.251953 13.164062 C 34.306178 12.915176 33.807592 12.764624 33.757812 12.714844 z M 36.445312 14.955078 L 37.490234 16 L 37.490234 16.375 L 36.445312 14.955078 z M 33.085938 17.121094 C 34.280604 17.469538 35.499697 17.817572 36.744141 18.166016 C 38.187696 18.614016 38.910156 19.609232 38.910156 21.152344 L 38.537109 21.525391 C 38.238443 20.928057 37.416266 20.480307 36.072266 20.181641 C 34.529155 19.833197 33.533938 19.436281 33.085938 18.988281 L 34.654297 18.988281 C 35.301408 18.988281 35.79804 18.862171 36.146484 18.613281 L 33.085938 17.121094 z M 207.08203 25.558594 C 206.9327 25.558594 206.73326 25.631917 206.48438 25.78125 C 205.93682 27.423917 205.61323 29.564903 205.51367 32.203125 L 205.51367 39.595703 C 205.4639 42.58237 205.11586 44.971672 204.46875 46.763672 L 204.46875 51.617188 C 204.91675 55.15141 205.91196 57.316837 207.45508 58.113281 C 209.04796 58.909725 210.39317 58.785568 211.48828 57.740234 C 211.48828 49.377568 213.03097 43.428753 216.11719 39.894531 C 217.41141 38.650087 219.60127 38.127061 222.6875 38.326172 C 224.18083 39.172394 225.17605 40.542038 225.67383 42.433594 C 225.92272 43.379372 226.1466 45.194812 226.3457 47.882812 C 226.49504 50.321923 226.81863 52.114877 227.31641 53.259766 C 227.66485 54.454432 228.38732 55.549366 229.48242 56.544922 C 230.07976 57.042699 231.02609 57.714324 232.32031 58.560547 C 232.91765 57.515214 233.68899 57.091905 234.63477 57.291016 C 235.53077 54.354127 235.97852 51.268758 235.97852 48.033203 C 235.97852 41.064314 234.08779 35.538809 230.30469 31.457031 C 228.16424 29.117476 225.45135 27.947266 222.16602 27.947266 C 218.6318 27.947266 215.172 29.117476 211.78711 31.457031 C 211.43867 31.108587 211.16396 30.28641 210.96484 28.992188 C 210.81551 27.847298 210.4186 27.175673 209.77148 26.976562 L 209.77148 38.251953 C 209.62215 42.632397 208.74914 45.892758 207.15625 48.033203 C 207.5047 44.74787 207.82829 41.463068 208.12695 38.177734 C 208.57495 34.046179 208.80078 30.586383 208.80078 27.798828 C 208.55189 27.30105 208.30162 26.802465 208.05273 26.304688 C 207.80385 25.80691 207.48026 25.558594 207.08203 25.558594 z M 94.597656 26.677734 C 92.805657 27.026179 92.10959 27.201172 92.507812 27.201172 C 92.159368 27.201172 91.884658 27.125896 91.685547 26.976562 C 91.088214 27.424562 90.44103 27.896754 89.744141 28.394531 C 89.09703 28.892309 88.873155 29.539493 89.072266 30.335938 L 89.894531 29.441406 C 90.292753 28.993406 90.56551 28.769531 90.714844 28.769531 C 90.864177 28.769531 90.990288 28.893689 91.089844 29.142578 C 88.9494 31.681245 87.380322 34.567179 86.384766 37.802734 C 85.936764 40.739623 85.737329 42.581458 85.787109 43.328125 C 85.488443 43.577016 85.289008 43.676733 85.189453 43.626953 C 84.79123 42.58162 84.59375 41.511127 84.59375 40.416016 C 84.59375 39.072016 84.917342 37.454055 85.564453 35.5625 L 87.28125 31.009766 L 86.683594 31.009766 C 85.240038 33.299544 83.77263 35.61357 82.279297 37.953125 C 80.63663 40.790458 79.814453 43.3528 79.814453 45.642578 C 79.814453 46.9368 80.062769 48.231169 80.560547 49.525391 C 81.60588 51.068502 82.128906 52.138995 82.128906 52.736328 C 82.128906 52.985217 82.080025 53.259927 81.980469 53.558594 C 82.528024 54.603927 83.075491 55.126953 83.623047 55.126953 C 83.871936 55.126953 84.120252 55.000842 84.369141 54.751953 C 84.717585 55.847064 85.564203 56.6448 86.908203 57.142578 L 90.193359 58.486328 C 90.989804 58.585883 91.761146 58.634766 92.507812 58.634766 C 98.779812 58.634766 103.58286 56.121305 106.91797 51.09375 L 106.61914 50.720703 C 106.27069 50.621147 105.69878 50.94474 104.90234 51.691406 C 104.65343 51.39274 104.55372 51.193305 104.60352 51.09375 C 104.6533 51.043972 104.87717 50.771215 105.27539 50.273438 C 105.57406 49.974771 105.82237 49.824219 106.02148 49.824219 C 106.22059 49.824219 106.42003 49.923936 106.61914 50.123047 C 107.06714 48.380824 107.36629 47.037574 107.51562 46.091797 C 107.61518 46.042017 107.71489 46.017578 107.81445 46.017578 C 107.91401 46.017578 108.06261 46.090901 108.26172 46.240234 C 108.46081 46.389568 108.58497 46.464844 108.63477 46.464844 C 108.73432 46.464844 108.86043 46.340686 109.00977 46.091797 C 109.05955 45.992241 108.95982 45.792807 108.71094 45.494141 C 107.76516 45.543919 106.69467 46.016109 105.5 46.912109 C 104.00667 48.007221 103.01145 48.680799 102.51367 48.929688 C 101.5679 48.87991 100.09853 49.077391 98.107422 49.525391 C 96.116311 49.923613 94.673344 50.123047 93.777344 50.123047 C 91.985344 50.123047 90.491542 49.500304 89.296875 48.255859 C 89.296875 47.907415 89.121882 46.987474 88.773438 45.494141 C 88.524548 44.299474 88.400391 43.328698 88.400391 42.582031 C 88.400391 41.238031 88.799258 40.143097 89.595703 39.296875 L 91.089844 41.761719 C 93.877399 43.30483 95.792557 44.076172 96.837891 44.076172 C 97.236113 44.076172 97.683863 44.04978 98.181641 44 C 98.679419 43.900445 99.326603 43.552411 100.12305 42.955078 C 100.91949 42.357742 101.61751 42.084986 102.21484 42.134766 C 105.05218 39.745433 106.51959 37.679723 106.61914 35.9375 C 106.76847 33.199723 105.30106 30.934578 102.21484 29.142578 C 101.71706 29.043023 100.81961 28.619714 99.525391 27.873047 C 98.380502 27.275714 97.485002 26.976562 96.837891 26.976562 C 95.991669 26.976562 95.244768 27.375431 94.597656 28.171875 C 94.29899 28.022542 94.150391 27.847548 94.150391 27.648438 C 94.150391 27.996882 94.29899 27.67329 94.597656 26.677734 z M 149.9668 29.068359 C 149.56858 29.068359 149.21859 29.416392 148.91992 30.113281 C 148.67103 30.760392 148.54688 31.480899 148.54688 32.277344 C 148.54688 33.123566 148.79714 34.318217 149.29492 35.861328 C 149.84248 37.354661 150.11523 38.47599 150.11523 39.222656 C 150.11523 39.521323 150.09082 39.818521 150.04102 40.117188 C 150.7379 42.50652 152.2317 45.121651 154.52148 47.958984 C 156.25318 50.045897 158.01191 52.105039 159.7832 54.152344 C 159.67868 53.765079 159.85383 53.302425 160.41992 52.736328 L 162.36133 55.275391 C 162.31155 55.52428 162.13656 55.648438 161.83789 55.648438 L 161.0918 55.648438 L 161.39062 56.021484 C 161.09196 59.406373 159.69787 64.036379 157.20898 69.910156 C 154.72009 75.783934 153.32601 80.413939 153.02734 83.798828 C 153.5749 84.147273 154.02265 84.271431 154.37109 84.171875 C 154.66976 83.574542 154.76948 83.075956 154.66992 82.677734 C 157.05926 79.093734 158.97637 75.609498 160.41992 72.224609 L 160.04688 71.851562 L 161.39062 70.058594 C 161.73907 68.863927 161.91211 68.14342 161.91211 67.894531 C 161.91211 67.396753 161.73907 67.048721 161.39062 66.849609 C 162.68484 65.754499 163.70451 64.01238 164.45117 61.623047 C 164.99873 59.53238 165.5462 57.415835 166.09375 55.275391 C 165.94442 55.225613 165.72054 55.349771 165.42188 55.648438 C 165.17299 55.499104 165.04883 55.12663 165.04883 54.529297 C 165.24793 54.379964 165.34766 54.204971 165.34766 54.005859 C 165.34766 53.856526 165.2235 53.60821 164.97461 53.259766 C 164.7755 52.861544 164.67578 52.562393 164.67578 52.363281 C 164.67578 52.114393 164.79993 51.890518 165.04883 51.691406 L 166.09375 53.484375 L 167.06445 52.736328 C 167.91067 47.858106 169.25588 43.179219 171.09766 38.699219 C 172.09321 34.916107 172.86456 32.378206 173.41211 31.083984 C 172.26722 32.07954 171.04617 33.522506 169.75195 35.414062 C 168.60706 37.006951 167.48768 38.574076 166.39258 40.117188 C 166.64146 41.311853 166.31788 42.482064 165.42188 43.626953 C 164.62543 44.522953 163.82964 45.394012 163.0332 46.240234 C 162.23676 45.145123 160.71852 42.507505 158.47852 38.326172 C 156.68652 34.991061 154.86912 32.453159 153.02734 30.710938 C 152.72868 30.66116 152.20565 30.386449 151.45898 29.888672 C 150.7621 29.341116 150.26546 29.068359 149.9668 29.068359 z M 171.09766 38.699219 C 171.29676 38.948107 171.39453 39.222818 171.39453 39.521484 C 171.39453 39.770374 171.32121 40.118407 171.17188 40.566406 C 171.07232 41.014406 171.02148 41.337998 171.02148 41.537109 C 171.02148 41.686443 171.04786 41.810601 171.09766 41.910156 L 171.39453 41.537109 L 172.06836 42.283203 L 172.44141 41.910156 L 172.06836 41.537109 L 173.78516 39.072266 C 173.63582 38.275822 173.83526 37.305046 174.38281 36.160156 C 174.93037 35.015268 175.20312 34.119768 175.20312 33.472656 C 175.20312 33.17399 175.17871 32.874839 175.12891 32.576172 L 174.45703 32.576172 C 174.0588 33.123728 173.58466 34.218661 173.03711 35.861328 C 172.58911 37.304883 172.04164 38.375377 171.39453 39.072266 L 171.09766 38.699219 z M 159.7832 54.152344 C 159.78897 54.173713 159.74024 54.209644 159.74805 54.230469 L 160.41992 54.902344 C 160.20491 54.655076 159.99764 54.400192 159.7832 54.152344 z M 92.283203 29.740234 C 89.925491 33.012879 88.446819 36.023722 87.755859 38.798828 C 87.897603 38.121645 87.870226 37.583875 88.101562 36.832031 L 89.595703 31.904297 C 90.093481 31.85452 90.565672 31.606203 91.013672 31.158203 C 91.461672 30.660425 91.884981 30.188234 92.283203 29.740234 z M 178.49219 30.412109 C 177.69574 30.511665 177.29688 30.90858 177.29688 31.605469 C 177.29687 31.904135 177.39659 32.427161 177.5957 33.173828 C 177.84459 33.920495 177.96875 34.467962 177.96875 34.816406 C 177.96875 35.513296 177.62071 36.036322 176.92383 36.384766 L 176.92383 39.371094 C 176.92383 40.56576 177.1477 41.46126 177.5957 42.058594 C 177.39659 43.004371 177.29688 43.926266 177.29688 44.822266 C 177.29687 49.252488 179.26287 53.135592 183.19531 56.470703 C 183.34465 56.420923 183.4952 56.394531 183.64453 56.394531 C 183.79386 56.394531 184.2905 56.768958 185.13672 57.515625 C 186.13227 58.461403 187.10305 58.933594 188.04883 58.933594 C 189.19371 58.933594 190.63863 58.062534 192.38086 56.320312 C 194.37197 54.378979 195.81494 53.259604 196.71094 52.960938 C 198.20427 54.454271 199.54752 55.201172 200.74219 55.201172 C 201.04085 55.201172 201.36444 55.150337 201.71289 55.050781 L 201.71289 53.035156 C 201.71289 52.238712 201.81261 51.615969 202.01172 51.167969 C 200.21972 50.122635 198.97619 48.455794 198.2793 46.166016 C 197.88108 44.921572 197.53304 42.707262 197.23438 39.521484 C 196.98549 36.48504 196.61106 34.268778 196.11328 32.875 L 195.44141 32.128906 C 195.69029 32.626684 195.81445 33.223033 195.81445 33.919922 C 195.81445 34.616811 195.69029 35.215113 195.44141 35.712891 L 195.14258 35.339844 C 195.0928 35.140732 194.96864 34.817141 194.76953 34.369141 C 194.6202 33.921141 194.54492 33.573107 194.54492 33.324219 C 194.54492 33.025552 194.64464 32.750842 194.84375 32.501953 C 194.64464 32.402397 194.54492 32.054365 194.54492 31.457031 C 194.39559 31.457031 194.12283 31.357314 193.72461 31.158203 C 193.37616 30.909314 193.1259 30.785156 192.97656 30.785156 C 192.6779 30.785156 192.45402 31.009031 192.30469 31.457031 L 191.70898 30.785156 C 191.16142 31.133601 190.6384 31.481633 190.14062 31.830078 C 189.54331 32.327855 189.21972 32.899764 189.16992 33.546875 C 189.31926 33.795764 189.49229 33.919922 189.69141 33.919922 C 189.79096 33.919922 189.9904 33.846599 190.28906 33.697266 C 190.58773 33.54793 190.838 33.497095 191.03711 33.546875 C 191.13666 33.696208 191.18555 33.871201 191.18555 34.070312 C 191.18555 34.319201 191.06139 34.691675 190.8125 35.189453 C 190.61339 35.68723 190.51367 36.086099 190.51367 36.384766 C 190.51367 36.633655 190.58895 36.85753 190.73828 37.056641 C 191.28583 37.056641 191.60942 37.180798 191.70898 37.429688 C 191.75876 37.579021 191.65904 37.82929 191.41016 38.177734 C 191.06171 37.879066 190.83783 37.752954 190.73828 37.802734 C 190.93739 38.947623 191.03711 40.168669 191.03711 41.462891 C 191.03711 43.354447 190.73796 46.116223 190.14062 49.75 C 189.2944 50.845111 188.47222 51.940046 187.67578 53.035156 C 186.63045 54.229826 185.55996 54.801733 184.46484 54.751953 C 184.31551 54.80173 184.16691 54.752849 184.01758 54.603516 C 183.86822 54.404405 183.81934 54.204971 183.86914 54.005859 C 184.01847 53.557861 184.34012 53.309546 184.83789 53.259766 C 185.23612 53.259766 185.63498 53.284204 186.0332 53.333984 C 186.73009 52.686873 187.27755 51.667215 187.67578 50.273438 C 187.97445 49.028993 188.2736 47.807948 188.57227 46.613281 C 188.22382 46.613281 187.97551 46.839109 187.82617 47.287109 C 187.72662 47.685332 187.55163 47.933648 187.30273 48.033203 C 186.95429 48.132758 186.60626 48.0086 186.25781 47.660156 C 185.95915 47.311712 185.68443 46.961726 185.43555 46.613281 C 184.6391 41.187504 183.37113 36.011984 181.62891 31.083984 L 181.03125 31.083984 C 181.32992 33.672429 181.62907 36.234771 181.92773 38.773438 C 182.42551 41.61077 183.36989 43.875915 184.76367 45.568359 L 184.46484 45.941406 C 182.87196 44.348518 181.65287 41.910333 180.80664 38.625 C 179.36309 33.348556 178.59174 30.611221 178.49219 30.412109 z M 197.30859 30.785156 L 198.57812 40.939453 C 198.6279 41.138564 198.75207 41.462156 198.95117 41.910156 C 199.20007 42.308379 199.32422 42.583089 199.32422 42.732422 C 199.32422 42.881755 199.2998 43.005913 199.25 43.105469 C 199.79755 43.603247 200.14559 44.498747 200.29492 45.792969 C 200.54382 47.286302 200.81657 48.257078 201.11523 48.705078 L 201.41406 48.705078 C 201.36429 48.555745 200.84322 45.494818 199.84766 39.521484 C 199.25032 35.788151 198.4037 32.875823 197.30859 30.785156 z M 213.13086 31.457031 L 212.45898 32.203125 L 212.08594 32.203125 L 213.13086 31.457031 z M 134.66992 31.605469 C 135.56592 36.284579 136.01367 40.167684 136.01367 43.253906 C 136.01367 43.376799 135.9934 43.479884 135.99219 43.601562 C 135.9787 41.992406 135.82462 40.04277 135.49023 37.654297 C 134.99248 33.77163 134.71972 31.754802 134.66992 31.605469 z M 94.001953 31.904297 C 95.793953 32.551408 97.312196 33.59746 98.556641 35.041016 C 99.90064 36.633905 100.64559 38.376023 100.79492 40.267578 L 99.900391 41.164062 C 99.352835 37.928507 98.654816 35.862797 97.808594 34.966797 C 97.808594 35.165908 97.708877 35.438665 97.509766 35.787109 C 97.310655 36.085776 97.210937 36.334092 97.210938 36.533203 C 97.210938 36.732314 97.310655 36.931748 97.509766 37.130859 C 96.912432 36.981526 96.092208 36.908203 95.046875 36.908203 C 94.05132 36.858425 93.229143 36.732314 92.582031 36.533203 L 90.492188 36.832031 C 91.288632 34.094254 92.458842 32.451853 94.001953 31.904297 z M 39.880859 32.949219 C 40.229304 41.062996 40.353462 47.186804 40.253906 51.318359 C 40.552573 52.363693 40.552573 52.986436 40.253906 53.185547 C 39.109018 50.945547 38.461833 47.709627 38.3125 43.478516 C 38.063613 37.206516 37.915014 33.821997 37.865234 33.324219 C 37.915012 33.473552 37.788901 33.721868 37.490234 34.070312 C 37.14179 33.771643 36.917915 33.647486 36.818359 33.697266 C 35.623693 36.435044 35.027344 39.47153 35.027344 42.806641 C 35.027344 46.888419 35.847568 50.844846 37.490234 54.677734 C 37.739123 55.175512 38.288544 55.623262 39.134766 56.021484 C 39.980988 56.369929 40.47762 56.892955 40.626953 57.589844 C 41.672286 56.54451 42.29503 54.853227 42.494141 52.513672 C 42.792807 49.477227 43.065564 47.608998 43.314453 46.912109 C 43.115342 44.373443 42.942302 41.835542 42.792969 39.296875 C 42.444524 36.359986 41.473748 34.243441 39.880859 32.949219 z M 216.64062 35.265625 C 218.4824 35.265625 220.17368 35.737816 221.7168 36.683594 C 220.62168 36.136038 219.27843 35.861328 217.68555 35.861328 C 216.24199 35.861328 214.37572 36.136038 212.08594 36.683594 C 213.38016 35.737816 214.8984 35.265625 216.64062 35.265625 z M 188.87109 36.011719 L 188.87109 37.429688 L 189.16992 37.056641 C 189.16992 36.509085 189.07021 36.161052 188.87109 36.011719 z M 216.41602 37.503906 C 215.66935 37.951906 214.97133 38.725201 214.32422 39.820312 C 213.17933 41.66209 212.55854 42.632866 212.45898 42.732422 C 212.06076 42.483533 211.86133 42.184382 211.86133 41.835938 C 211.86133 41.636826 211.9366 41.362117 212.08594 41.013672 C 212.23527 40.61545 212.30859 40.316298 212.30859 40.117188 C 212.30859 39.868298 212.23527 39.670818 212.08594 39.521484 C 214.12682 38.27704 215.56979 37.603462 216.41602 37.503906 z M 191.70898 38.474609 L 192.30469 39.222656 C 191.90647 39.421767 191.70898 39.670083 191.70898 39.96875 C 191.70898 40.167861 191.88203 40.591171 192.23047 41.238281 C 192.6287 41.835615 192.75285 42.334199 192.60352 42.732422 C 192.75285 44.026644 192.45565 45.095184 191.70898 45.941406 L 191.70898 39.96875 L 191.70898 38.474609 z M 188.57227 40.267578 L 188.27344 45.568359 L 188.57227 45.568359 C 189.07004 43.975471 189.07004 42.208911 188.57227 40.267578 z M 87.474609 40.390625 C 87.394781 40.976644 87.28125 41.572576 87.28125 42.134766 C 87.28125 43.030766 87.380967 43.950706 87.580078 44.896484 C 87.331189 43.900929 87.207031 42.905712 87.207031 41.910156 C 87.207031 41.478205 87.421126 40.867146 87.474609 40.390625 z M 172.06641 43.029297 L 171.09766 44.076172 C 170.74921 43.777503 170.52338 43.651392 170.42383 43.701172 L 170.72266 44.822266 C 169.77688 46.912932 168.73278 50.545768 167.58789 55.722656 C 166.54256 60.551101 165.37234 64.135054 164.07812 66.474609 C 164.1279 68.565276 163.43184 71.029854 161.98828 73.867188 C 160.29584 77.152521 159.32507 79.492941 159.07617 80.886719 C 161.91351 75.361385 163.90393 71.154689 165.04883 68.267578 C 165.0986 66.525356 165.94522 64.260212 167.58789 61.472656 C 169.18078 58.884212 169.90129 56.570186 169.75195 54.529297 L 169.45312 54.230469 L 170.12695 53.484375 L 172.06641 43.029297 z M 135.91797 44.839844 C 135.86469 45.969043 135.77115 47.057414 135.60547 48.074219 C 135.81381 47.094972 135.86921 45.971418 135.91797 44.839844 z M 156.01367 45.867188 L 158.4043 48.40625 L 159.07617 50.945312 L 156.01367 45.867188 z M 25.599609 47.435547 C 25.748943 48.182214 25.551462 48.778563 25.003906 49.226562 C 24.804796 48.430118 25.002276 47.833769 25.599609 47.435547 z M 135.59961 48.097656 C 135.44679 49.029621 135.29038 49.957547 135.04297 50.794922 L 134.37109 51.542969 C 134.91708 50.525448 135.32583 49.375015 135.59961 48.097656 z M 31.201172 49.900391 L 31.574219 51.691406 L 31.201172 49.900391 z M 37.490234 50.945312 L 39.208984 53.931641 L 39.208984 54.304688 L 37.490234 50.945312 z M 192.00781 53.632812 C 192.00781 53.732368 192.08114 53.980684 192.23047 54.378906 C 192.3798 54.677573 192.30648 54.901448 192.00781 55.050781 C 192.00781 54.453448 191.90809 54.105415 191.70898 54.005859 L 192.00781 53.632812 z M 207.45508 54.902344 L 208.12695 54.902344 L 208.12695 56.097656 L 207.45508 54.902344 z M 122.20117 55.275391 L 125.85938 55.648438 C 125.56071 55.897326 125.16184 56.021484 124.66406 56.021484 C 123.76806 56.021484 122.94784 55.773169 122.20117 55.275391 z M 96.988281 55.722656 C 93.65317 56.76799 91.412467 57.291016 90.267578 57.291016 C 89.421356 57.291016 88.625573 57.166857 87.878906 56.917969 C 88.376684 57.017524 88.873316 57.068359 89.371094 57.068359 C 90.416427 57.068359 91.710796 56.893366 93.253906 56.544922 C 95.19524 56.047146 96.440725 55.772436 96.988281 55.722656 z "
     style="font-style:normal;font-variant:normal;font-weight:normal;font-stretch:normal;font-size:74.66666412px;font-family:PaintyPaint;-inkscape-font-specification:'PaintyPaint, Normal';font-variant-ligatures:normal;font-variant-caps:normal;font-variant-numeric:normal;font-feature-settings:normal;text-align:start;writing-mode:lr-tb;text-anchor:start;fill:#28d223;fill-opacity:1"
     id="path831"
     d="m 123.24609,1.3652344 c -0.19911,0 -0.42298,0.523026 -0.67187,1.5683594 -0.19911,0.9955555 -0.5227,1.5694166 -0.9707,1.71875 -0.24889,-0.248889 -0.37305,-0.5235991 -0.37305,-0.8222657 0,-0.1991111 0.12416,-0.5227031 0.37305,-0.9707031 0.24891,-0.4977777 0.34862,-0.8966458 0.29882,-1.1953125 -0.54755,0.3484444 -1.07058,1.0709045 -1.56836,2.1660156 -0.59733,1.2444444 -1.06952,2.0157865 -1.41796,2.3144531 V 7.265625 c 0,0.049778 -0.19944,0.2980938 -0.59766,0.7460938 -0.19911,0.2488889 -0.42299,0.3730468 -0.67188,0.3730468 -0.0498,1.0951112 0.37354,1.8420124 1.26954,2.2402344 0.49778,-0.8959999 1.39328,-1.2704271 2.6875,-1.1210938 0.24889,-0.7466665 0.59692,-1.1191406 1.04492,-1.1191406 0.14933,0 0.44848,0.099717 0.89648,0.2988282 0.448,0.1493333 0.79604,0.2246093 1.04492,0.2246093 0.19912,0 0.39855,-0.050835 0.59766,-0.1503906 0.29867,0.4977777 1.07001,0.8458107 2.31445,1.0449219 0.99556,0.1991116 1.54302,0.7221376 1.64258,1.5683596 2.19022,1.294222 3.98317,3.410767 5.37695,6.347656 l 3.13477,7.914062 c 0.29867,-0.298669 0.52254,-0.422826 0.67187,-0.373046 0.74667,2.936889 1.31858,6.620559 1.7168,11.050781 0.29867,3.832889 0.59782,7.640717 0.89649,11.423828 0.29866,3.335111 -1.79149,6.096887 -6.27149,8.287109 l -0.29883,-0.373046 c 1.69245,-1.742223 3.01126,-3.883209 3.95703,-6.421876 -0.59733,-2.538666 -1.02063,-7.117836 -1.26953,-13.738281 -0.24888,-6.122666 -0.82079,-10.651001 -1.71679,-13.58789 -1.344,-4.579556 -3.85747,-7.966028 -7.54102,-10.15625 l 3.28516,4.18164 c 0.0498,0.149334 0.17394,0.397649 0.37304,0.746094 0.19912,0.348445 0.29883,0.623155 0.29883,0.822266 0,0.248889 -0.12416,0.472764 -0.37304,0.671875 l -1.64258,-1.867188 c 1.64266,1.244444 2.589,3.336549 2.83789,6.273438 0.34844,4.280889 0.6212,6.670191 0.82031,7.167968 -0.19911,0.896 -0.29883,1.815941 -0.29883,2.761719 0,1.095111 0.15055,2.68863 0.44922,4.779297 0.29867,2.090667 0.44727,3.60891 0.44727,4.554688 0,1.99111 -0.42331,3.708787 -1.26953,5.152343 -2.14045,1.294222 -4.43003,1.941407 -6.86914,1.941407 -1.792,0 -3.33469,-0.398868 -4.62891,-1.195313 -2.09067,-1.642667 -3.60891,-3.983087 -4.55469,-7.019531 -0.64711,-1.941334 -1.19458,-4.853662 -1.64258,-8.736328 0.99556,-5.923556 1.56747,-9.0842 1.7168,-9.482422 1.04533,-3.484445 2.86273,-5.550155 5.45117,-6.197266 1.19467,-0.647111 1.79102,-1.542611 1.79102,-2.6875 0,-0.248889 -0.0489,-0.497205 -0.14844,-0.746094 -0.99555,-1.144888 -1.74245,-1.767632 -2.24023,-1.867187 -1.344,1.393777 -2.68921,2.763422 -4.03321,4.107422 -1.59288,1.792 -2.66143,3.434401 -3.20898,4.927734 -1.19467,0.995555 -1.9924,2.786555 -2.39063,5.375 -0.448,3.384889 -0.84492,5.450599 -1.19336,6.197266 -0.19911,0.09956 -0.42298,0.02623 -0.67187,-0.222657 -0.19911,-0.298664 -0.29883,-0.473657 -0.29883,-0.523437 -0.14933,-1.742222 0.12343,-3.683774 0.82031,-5.824219 l 1.79297,-5.375 c -1.14488,1.692444 -1.99151,3.931195 -2.53906,6.71875 -0.0996,0.348445 -0.47399,2.861905 -1.12109,7.541016 -0.0498,9.009778 1.91817,15.381902 5.90039,19.115234 6.42133,4.430223 11.99571,6.795084 16.72461,7.09375 6.22222,-0.846222 10.50224,-3.459399 12.84179,-7.839844 1.74223,-2.737778 2.61328,-6.073415 2.61328,-10.005859 0,-3.932445 -1.21909,-9.730707 -3.6582,-17.396484 -1.94133,-3.783111 -3.90732,-7.566498 -5.89844,-11.34961 -2.48888,-4.4302214 -5.20178,-7.6417011 -8.13867,-9.6328121 -0.49778,0.7466666 -1.12052,1.1210937 -1.86719,1.1210937 -0.39822,0 -1.019,-0.124158 -1.86523,-0.3730468 -0.84622,-0.298667 -1.46897,-0.424778 -1.86719,-0.375 l 0.30274,-0.3535157 -0.60157,0.3535157 c -0.29868,-0.3484444 -0.42284,-0.5967605 -0.37304,-0.7460938 0.0995,-0.6471111 0.47202,-1.0948611 1.11914,-1.34375 0.49777,-0.1493333 0.99636,-0.3243264 1.49414,-0.5234375 l -0.67188,-0.074219 c -0.29866,0 -0.4981,0.150552 -0.59765,0.4492187 -0.39823,-0.448 -0.72182,-0.6738281 -0.97071,-0.6738281 z m 0.60157,2.5585937 0.66796,-0.3925781 c -0.1991,-0.049778 -0.3741,0.025498 -0.52343,0.2246094 z M 3.6484375,4.4277344 c -1.0951111,2.1404443 -1.6425781,4.928615 -1.6425781,8.3632816 0,1.493333 0.099717,3.160175 0.2988281,5.001953 -0.1991111,2.43911 -0.2988281,5.351439 -0.2988281,8.736328 v 4.03125 3.882812 c 0,5.425778 -0.348033,9.88079 -1.0449219,13.365235 0.0497778,0.647111 -0.001057,1.642329 -0.15039062,2.986328 -0.0995556,1.344 -0.1484375,2.314776 -0.1484375,2.912109 0,1.642667 0.32359203,2.961475 0.97070312,3.957031 0.5475555,0.746667 0.9953056,1.121094 1.34375,1.121094 0.3982223,0 0.8704132,-0.498584 1.4179687,-1.49414 0.5973333,-1.045334 1.0959185,-1.617242 1.4941407,-1.716797 0,-0.04978 -0.6227431,-0.37337 -1.8671875,-0.970703 -0.7466666,-0.348444 -1.2188576,-0.84703 -1.4179688,-1.494141 1.344,-9.159111 2.015625,-15.156807 2.015625,-17.994141 l 0.671875,-0.746093 c 0.2986667,-0.09956 0.7219757,0.14876 1.2695313,0.746093 0.5475555,1.344 0.7714305,2.986401 0.671875,4.927735 -0.099556,-0.348445 0.1243194,-0.820636 0.671875,-1.417969 0.5475555,0.597333 0.7714305,1.069524 0.671875,1.417969 0.8462221,0.04978 1.8169981,0.721403 2.9121091,2.015625 1.244445,1.443555 2.239662,2.290174 2.986328,2.539062 4.330667,3.783112 7.715187,6.24769 10.154297,7.392578 0.497778,-0.199111 0.796929,-0.646861 0.896485,-1.34375 0.09956,-0.746666 0.349824,-1.220811 0.748047,-1.419922 0.846222,1.393778 1.393689,2.563988 1.642578,3.509766 l 1.642578,-1.417969 c 0.04978,-0.149333 0.07422,-0.273491 0.07422,-0.373047 0,-0.248889 -0.124157,-0.499158 -0.373046,-0.748046 -0.39822,-0.348444 -0.622095,-0.572319 -0.671875,-0.671875 -0.647111,-1.742222 -0.547394,-2.91048 0.298828,-3.507813 0.448,0.149333 0.671875,0.670406 0.671875,1.566406 0,0.846222 0.323592,1.269532 0.970703,1.269532 0,-0.597334 0.124158,-0.945367 0.373047,-1.044922 -0.09956,-0.09956 -1.868068,-2.214147 -5.302735,-6.345703 C 23.508943,38.974002 21.54295,37.20549 19.701172,36.160156 15.71895,30.883712 13.305206,27.350594 12.458984,25.558594 l 3.285157,-4.554688 c 0.149333,-1.493332 0.871793,-3.111293 2.166015,-4.853515 l 3.134766,-4.330079 0.298828,0.373047 c 0.248889,0 0.523599,-0.174992 0.822266,-0.523437 0.298664,-0.348444 0.473657,-0.521484 0.523437,-0.521484 -0.348445,0.149333 -0.698431,0.02322 -1.046875,-0.375 l -0.597656,-0.746094 c -2.737777,3.584 -4.703771,6.296894 -5.898438,8.138672 -0.746666,1.294222 -2.114357,2.987459 -4.105468,5.078125 C 8.9005714,25.533919 7.5309271,27.125484 6.9335938,28.021484 6.5353715,28.170818 6.1120624,28.121936 5.6640625,27.873047 5.0169516,27.524602 4.6689186,27.349609 4.6191406,27.349609 7.7551405,22.023387 11.263818,16.847868 15.146484,11.820312 c -0.597333,0.248889 -1.244517,0.86968 -1.941406,1.865235 -0.647111,0.995556 -1.219019,1.667181 -1.716797,2.015625 -0.796444,0.597333 -1.343911,0.896484 -1.6425779,0.896484 -0.3982222,0 -0.7218142,-0.299151 -0.9707031,-0.896484 0.1991111,0.995556 -0.1244809,1.817733 -0.9707031,2.464844 -1.1946667,-2.389334 -1.7910157,-4.479485 -1.7910157,-6.271485 10e-8,-0.497777 0.048882,-0.996362 0.1484376,-1.49414 C 5.7639409,9.9523908 5.391467,8.8818975 5.1425781,7.1894531 4.943467,5.7458977 4.4448819,4.8259566 3.6484375,4.4277344 Z M 74.849609,4.5761719 c -1.244444,3.335111 -2.115504,7.2934911 -2.613281,11.8730471 -0.298667,2.688 -0.546982,6.919137 -0.746094,12.693359 l 0.671875,3.806641 -0.671875,0.748047 c 0,0.04978 0.174993,0.521968 0.523438,1.417968 0.199111,0.597334 0.247993,1.1448 0.148437,1.642578 -0.149333,1.443556 -0.0985,3.336226 0.150391,5.675782 0.298665,3.633778 0.471704,5.573377 0.521484,5.822265 -0.647108,0.647112 -0.995142,1.593447 -1.044922,2.837891 v 3.285156 c 0.199111,0.846223 0.821855,1.493407 1.867188,1.941406 1.045333,0.448001 1.666123,1.095185 1.865234,1.941407 0.04978,-0.298667 0.348929,-1.118891 0.896485,-2.462891 0.348444,-0.995555 0.523437,-1.842173 0.523437,-2.539062 0,-0.398222 -0.02639,-0.772649 -0.07617,-1.121094 -0.547555,1.194667 -0.995305,1.941568 -1.34375,2.240234 -0.597333,-0.846222 -0.597333,-2.488623 0,-4.927734 -0.09955,0.298667 -0.223713,0.6467 -0.373046,1.044922 -0.09956,0.348446 -0.323431,0.498999 -0.671876,0.449218 -0.04978,-0.448 -0.07422,-0.922143 -0.07422,-1.419921 0,-0.995556 0.174993,-2.289924 0.523437,-3.882813 0.547554,-2.090667 0.844752,-3.383081 0.894531,-3.880859 0.348444,1.792 0.472603,3.184132 0.373047,4.179687 l 0.671875,-6.121094 c 0,0.199112 0.174993,1.393763 0.523438,3.583985 0.199111,1.393777 0.249946,2.513152 0.15039,3.359375 h 0.296876 c 0.04978,-0.945778 0.175888,-2.514856 0.375,-4.705078 0.199111,-1.991112 0.298828,-3.533796 0.298828,-4.628906 0,-1.344001 -0.09972,-2.587533 -0.298828,-3.732422 0.597333,-0.348444 0.745932,-0.971188 0.447265,-1.867188 -0.248889,-0.896 -0.173613,-1.543184 0.224609,-1.941406 -0.49778,-5.475556 -0.721654,-9.307825 -0.671874,-11.498047 l -0.671876,-0.748047 c 0.04978,-0.796445 0.07422,-1.616669 0.07422,-2.46289 0,-4.081778 -0.921894,-7.6168496 -2.763672,-10.6035161 z M 7.2324219,4.8007812 C 6.983533,5.1492257 6.859375,5.5969757 6.859375,6.1445312 c 0,0.4480001 0.075276,1.0199081 0.2246094,1.7167969 0.1354477,0.6320892 0.1885773,0.9981245 0.2011718,1.2207031 0.02229,-0.089449 -0.02017,-0.1528051 0.021484,-0.25 C 7.5057517,8.4835869 7.6054688,8.2597118 7.6054688,8.1601562 7.6054688,7.9610451 7.4813107,7.7616111 7.2324219,7.5625 L 7.9042969,6.890625 C 7.655408,6.6915139 7.53125,6.3434809 7.53125,5.8457031 7.53125,5.2981476 7.431533,4.9501146 7.2324219,4.8007812 Z m 0.052734,4.28125 c -0.057619,0.2312258 -0.1245198,0.4670204 -0.052734,0.6464844 0.049778,-0.1493333 0.074219,-0.3223733 0.074219,-0.5214844 0,-0.018514 -0.020193,-0.1021819 -0.021484,-0.125 z M 24.332031,4.8007812 C 21.843143,5.8461145 20.198788,6.5930156 19.402344,7.0410156 17.660121,8.1361267 16.341312,9.5057708 15.445312,11.148438 L 18.431641,7.9375 c 0.298666,0 0.77281,-0.099717 1.419921,-0.2988281 0.696889,-0.2488889 1.193521,-0.3730469 1.492188,-0.3730469 0.547555,0 0.997258,0.223875 1.345703,0.671875 L 25.302734,5.0996094 Z M 51.488281,6.59375 51.115234,8.0859375 v 8.7363285 c -0.04978,3.285333 0.07438,6.122385 0.373047,8.511718 -0.896,0.696889 -2.190368,1.144639 -3.882812,1.34375 -1.393778,0.199112 -2.787864,0.374105 -4.181641,0.523438 l -1.044922,1.11914 c 0.348444,1.991111 1.392544,3.509355 3.134766,4.554688 l -0.671875,0.748047 c 0.896,0.597333 2.214808,1.169241 3.957031,1.716797 1.941333,0.647111 3.286537,1.194578 4.033203,1.642578 1.244445,6.471111 2.064669,12.592965 2.462891,18.367187 -0.09956,1.244445 0.423471,2.015787 1.568359,2.314453 1.294223,0.448001 2.041124,1.046303 2.240235,1.792969 l -0.298828,0.373047 c -0.04978,0.149333 0.04994,0.39765 0.298828,0.746094 0,-0.447999 0.124157,-1.144066 0.373046,-2.089844 0.248889,-0.995555 0.373047,-1.66718 0.373047,-2.015625 0,-0.945778 -0.47219,-1.568521 -1.417968,-1.867187 -0.04978,-0.149334 -0.07422,-0.273492 -0.07422,-0.373047 0,-0.248889 0.17304,-0.523599 0.521484,-0.822266 0.348443,-0.348445 0.547877,-0.57232 0.597656,-0.671875 -0.597333,0 -0.945365,0.124158 -1.044921,0.373047 -0.696889,-4.828444 -1.044922,-8.48572 -1.044922,-10.974609 0,-1.692444 0.124158,-3.285964 0.373047,-4.779297 0.398222,0.448 0.697373,1.243783 0.896484,2.388672 0.298667,1.792 0.447266,2.738335 0.447266,2.83789 l -0.298828,-5.599609 c 1.244444,-1.144889 2.93768,-2.1665 5.078124,-3.0625 1.792001,-0.746667 3.583,-1.467174 5.375,-2.164063 v -0.746093 l -0.373046,0.373046 c -0.04978,-0.04978 -0.422252,-0.04978 -1.119141,0 -0.448,0 -0.771592,-0.124157 -0.970703,-0.373046 l 2.089844,-1.941407 -1.34375,-1.121093 0.298828,-0.373047 c 0.199111,-0.09956 0.374104,-0.150391 0.523437,-0.150391 0.696889,0 1.217962,0.549421 1.566407,1.644531 0.298666,-0.348444 0.449218,-0.87147 0.449218,-1.568359 0,-0.746667 -0.150552,-1.220811 -0.449218,-1.419922 l -0.298829,0.375 c -0.248888,-0.09955 -0.373047,-0.473982 -0.373047,-1.121094 -1.742222,-0.248888 -3.608498,-0.373047 -5.599609,-0.373046 -1.941333,0 -3.807609,0.124158 -5.599609,0.373046 L 57.386719,24.587891 55.294922,10.326172 54.623047,9.5800781 c -0.04978,0.049778 -0.04978,0.3469757 0,0.8945309 0,0.298667 -0.124158,0.498101 -0.373047,0.597657 C 54.200222,10.97271 53.70359,10.252203 52.757812,8.9082031 52.110701,8.0619809 51.687392,7.2906389 51.488281,6.59375 Z m -17.730469,6.121094 c -0.248889,0.149333 -0.373046,0.399603 -0.373046,0.748047 0,0.348444 0.124157,0.59676 0.373046,0.746093 l -2.388671,1.417969 c -0.149334,0.547555 -0.22461,1.070581 -0.22461,1.568359 0,2.240001 1.094934,4.305711 3.285157,6.197266 0.597333,0 1.543668,0.248317 2.83789,0.746094 1.294222,0.497778 2.240557,0.748047 2.837891,0.748047 0.995555,0 1.84022,-0.498586 2.537109,-1.494141 0.09956,-0.497778 0.150391,-0.994409 0.150391,-1.492187 0,-2.289778 -0.970776,-4.605758 -2.91211,-6.945313 -0.896,-0.746667 -1.718177,-1.119141 -2.464843,-1.11914 -0.398222,-1e-6 -0.721814,0.124158 -0.970704,0.373046 -0.19911,-0.497778 -0.596026,-0.845811 -1.193359,-1.044922 -0.945775,-0.248886 -1.444361,-0.399438 -1.494141,-0.449218 z m 2.6875,2.240234 L 37.490234,16 v 0.375 z m -3.359374,2.166016 c 1.194666,0.348444 2.413759,0.696478 3.658203,1.044922 1.443555,0.448 2.166015,1.443216 2.166015,2.986328 l -0.373047,0.373047 c -0.298666,-0.597334 -1.120843,-1.045084 -2.464843,-1.34375 -1.543111,-0.348444 -2.538328,-0.74536 -2.986328,-1.19336 h 1.568359 c 0.647111,0 1.143743,-0.12611 1.492187,-0.375 z m 173.996092,8.4375 c -0.14933,0 -0.34877,0.07332 -0.59765,0.222656 -0.54756,1.642667 -0.87115,3.783653 -0.97071,6.421875 v 7.392578 c -0.0498,2.986667 -0.39781,5.375969 -1.04492,7.167969 v 4.853516 c 0.448,3.534222 1.44321,5.699649 2.98633,6.496093 1.59288,0.796444 2.93809,0.672287 4.0332,-0.373047 0,-8.362666 1.54269,-14.311481 4.62891,-17.845703 1.29422,-1.244444 3.48408,-1.76747 6.57031,-1.568359 1.49333,0.846222 2.48855,2.215866 2.98633,4.107422 0.24889,0.945778 0.47277,2.761218 0.67187,5.449218 0.14934,2.439111 0.47293,4.232065 0.97071,5.376954 0.34844,1.194666 1.07091,2.2896 2.16601,3.285156 0.59734,0.497777 1.54367,1.169402 2.83789,2.015625 0.59734,-1.045333 1.36868,-1.468642 2.31446,-1.269531 0.896,-2.936889 1.34375,-6.022258 1.34375,-9.257813 0,-6.968889 -1.89073,-12.494394 -5.67383,-16.576172 -2.14045,-2.339555 -4.85334,-3.509765 -8.13867,-3.509765 -3.53422,0 -6.99402,1.17021 -10.37891,3.509765 -0.34844,-0.348444 -0.62315,-1.170621 -0.82227,-2.464843 -0.14933,-1.14489 -0.54624,-1.816515 -1.19336,-2.015626 v 11.275391 c -0.14933,4.380444 -1.02234,7.640805 -2.61523,9.78125 0.34845,-3.285333 0.67204,-6.570135 0.9707,-9.855469 0.448,-4.131555 0.67383,-7.591351 0.67383,-10.378906 -0.24889,-0.497778 -0.49916,-0.996363 -0.74805,-1.49414 -0.24888,-0.497778 -0.57247,-0.746094 -0.9707,-0.746094 z m -112.484374,1.11914 c -1.791999,0.348445 -2.488066,0.523438 -2.089844,0.523438 -0.348444,0 -0.623154,-0.07528 -0.822265,-0.22461 -0.597333,0.448 -1.244517,0.920192 -1.941406,1.417969 -0.647111,0.497778 -0.870986,1.144962 -0.671875,1.941407 l 0.822265,-0.894532 c 0.398222,-0.448 0.670979,-0.671875 0.820313,-0.671875 0.149333,0 0.275444,0.124158 0.375,0.373047 -2.140444,2.538667 -3.709522,5.424601 -4.705078,8.660156 -0.448002,2.936889 -0.647437,4.778724 -0.597657,5.525391 -0.298666,0.248891 -0.498101,0.348608 -0.597656,0.298828 -0.398223,-1.045333 -0.595703,-2.115826 -0.595703,-3.210937 0,-1.344 0.323592,-2.961961 0.970703,-4.853516 l 1.716797,-4.552734 h -0.597656 c -1.443556,2.289778 -2.910964,4.603804 -4.404297,6.943359 -1.642667,2.837333 -2.464844,5.399675 -2.464844,7.689453 0,1.294222 0.248316,2.588591 0.746094,3.882813 1.045333,1.543111 1.568359,2.613604 1.568359,3.210937 0,0.248889 -0.04888,0.523599 -0.148437,0.822266 0.547555,1.045333 1.095022,1.568359 1.642578,1.568359 0.248889,0 0.497205,-0.126111 0.746094,-0.375 0.348444,1.095111 1.195062,1.892847 2.539062,2.390625 l 3.285156,1.34375 c 0.796445,0.09956 1.567787,0.148438 2.314453,0.148438 6.272,0 11.075048,-2.513461 14.410158,-7.541016 l -0.29883,-0.373047 c -0.34845,-0.09956 -0.92036,0.224037 -1.7168,0.970703 -0.24891,-0.298666 -0.34862,-0.498101 -0.29882,-0.597656 0.0498,-0.04978 0.27365,-0.322535 0.67187,-0.820312 0.29867,-0.298667 0.54698,-0.449219 0.74609,-0.449219 0.19911,0 0.39855,0.09972 0.59766,0.298828 0.448,-1.742223 0.74715,-3.085473 0.89648,-4.03125 0.0996,-0.04978 0.19927,-0.07422 0.29883,-0.07422 0.0996,0 0.24816,0.07332 0.44727,0.222656 0.19909,0.149334 0.32325,0.22461 0.37305,0.22461 0.0995,0 0.22566,-0.124158 0.375,-0.373047 0.0498,-0.09956 -0.05,-0.29899 -0.29883,-0.597656 -0.94578,0.04978 -2.01627,0.521968 -3.21094,1.417968 -1.49333,1.095112 -2.48855,1.76869 -2.98633,2.017579 -0.94577,-0.04978 -2.41514,0.147703 -4.406248,0.595703 -1.991111,0.398222 -3.434078,0.597656 -4.330078,0.597656 -1.792,0 -3.285802,-0.622743 -4.480469,-1.867188 0,-0.348444 -0.174993,-1.268385 -0.523437,-2.761718 -0.24889,-1.194667 -0.373047,-2.165443 -0.373047,-2.91211 0,-1.344 0.398867,-2.438934 1.195312,-3.285156 l 1.494141,2.464844 c 2.787555,1.543111 4.702713,2.314453 5.748047,2.314453 0.398222,0 0.845972,-0.02639 1.34375,-0.07617 0.497778,-0.09956 1.144962,-0.447589 1.941409,-1.044922 0.79644,-0.597336 1.49446,-0.870092 2.09179,-0.820312 2.83734,-2.389333 4.30475,-4.455043 4.4043,-6.197266 0.14933,-2.737777 -1.31808,-5.002922 -4.4043,-6.794922 -0.49778,-0.09955 -1.39523,-0.522864 -2.689449,-1.269531 -1.144889,-0.597333 -2.040389,-0.896485 -2.6875,-0.896485 -0.846222,0 -1.593123,0.398869 -2.240235,1.195313 -0.298666,-0.149333 -0.447265,-0.324327 -0.447265,-0.523437 0,0.348444 0.148599,0.02485 0.447265,-0.970704 z m 55.369144,2.390625 c -0.39822,0 -0.74821,0.348033 -1.04688,1.044922 -0.24889,0.647111 -0.37304,1.367618 -0.37304,2.164063 0,0.846222 0.25026,2.040873 0.74804,3.583984 0.54756,1.493333 0.82031,2.614662 0.82031,3.361328 0,0.298667 -0.0244,0.595865 -0.0742,0.894532 0.69688,2.389332 2.19068,5.004463 4.48046,7.841796 1.7317,2.086913 3.49043,4.146055 5.26172,6.19336 -0.10452,-0.387265 0.0706,-0.849919 0.63672,-1.416016 l 1.94141,2.539063 c -0.0498,0.248889 -0.22477,0.373047 -0.52344,0.373047 h -0.74609 l 0.29882,0.373046 c -0.29866,3.384889 -1.69275,8.014895 -4.18164,13.888672 -2.48889,5.873778 -3.88297,10.503783 -4.18164,13.888672 0.54756,0.348445 0.99531,0.472603 1.34375,0.373047 0.29867,-0.597333 0.39839,-1.095919 0.29883,-1.494141 2.38934,-3.584 4.30645,-7.068236 5.75,-10.453125 l -0.37304,-0.373047 1.34374,-1.792968 c 0.34845,-1.194667 0.52149,-1.915174 0.52149,-2.164063 0,-0.497778 -0.17304,-0.84581 -0.52149,-1.044922 1.29422,-1.09511 2.31389,-2.837229 3.06055,-5.226562 0.54756,-2.090667 1.09503,-4.207212 1.64258,-6.347656 -0.14933,-0.04978 -0.37321,0.07438 -0.67187,0.373047 -0.24889,-0.149334 -0.37305,-0.521808 -0.37305,-1.119141 0.1991,-0.149333 0.29883,-0.324326 0.29883,-0.523438 0,-0.149333 -0.12416,-0.397649 -0.37305,-0.746093 -0.19911,-0.398222 -0.29883,-0.697373 -0.29883,-0.896485 0,-0.248888 0.12415,-0.472763 0.37305,-0.671875 l 1.04492,1.792969 0.9707,-0.748047 c 0.84622,-4.878222 2.19143,-9.557109 4.03321,-14.037109 0.99555,-3.783112 1.7669,-6.321013 2.31445,-7.615235 -1.14489,0.995556 -2.36594,2.438522 -3.66016,4.330078 -1.14489,1.592889 -2.26427,3.160014 -3.35937,4.703126 0.24888,1.194665 -0.0747,2.364876 -0.9707,3.509765 -0.79645,0.896 -1.59224,1.767059 -2.38868,2.613281 -0.79644,-1.095111 -2.31468,-3.732729 -4.55468,-7.914062 -1.792,-3.335111 -3.6094,-5.873013 -5.45118,-7.615234 -0.29866,-0.04978 -0.82169,-0.324489 -1.56836,-0.822266 -0.69688,-0.547556 -1.19352,-0.820313 -1.49218,-0.820313 z m 21.13086,9.63086 c 0.1991,0.248888 0.29687,0.523599 0.29687,0.822265 0,0.24889 -0.0733,0.596923 -0.22265,1.044922 -0.0996,0.448 -0.1504,0.771592 -0.1504,0.970703 0,0.149334 0.0264,0.273492 0.0762,0.373047 l 0.29687,-0.373047 0.67383,0.746094 0.37305,-0.373047 -0.37305,-0.373047 1.7168,-2.464843 c -0.14934,-0.796444 0.0501,-1.76722 0.59765,-2.91211 0.54756,-1.144888 0.82031,-2.040388 0.82031,-2.6875 0,-0.298666 -0.0244,-0.597817 -0.0742,-0.896484 h -0.67188 c -0.39823,0.547556 -0.87237,1.642489 -1.41992,3.285156 -0.448,1.443555 -0.99547,2.514049 -1.64258,3.210938 z M 159.7832,54.152344 c 0.006,0.02137 -0.043,0.0573 -0.0351,0.07813 l 0.67187,0.671875 c -0.21501,-0.247268 -0.42228,-0.502152 -0.63672,-0.75 z M 92.283203,29.740234 c -2.357712,3.272645 -3.836384,6.283488 -4.527344,9.058594 0.141744,-0.677183 0.114367,-1.214953 0.345703,-1.966797 l 1.494141,-4.927734 c 0.497778,-0.04978 0.969969,-0.298094 1.417969,-0.746094 0.448,-0.497778 0.871309,-0.969969 1.269531,-1.417969 z m 86.208987,0.671875 c -0.79645,0.09956 -1.19531,0.496471 -1.19531,1.19336 -10e-6,0.298666 0.0997,0.821692 0.29882,1.568359 0.24889,0.746667 0.37305,1.294134 0.37305,1.642578 0,0.69689 -0.34804,1.219916 -1.04492,1.56836 v 2.986328 c 0,1.194666 0.22387,2.090166 0.67187,2.6875 -0.19911,0.945777 -0.29882,1.867672 -0.29882,2.763672 -10e-6,4.430222 1.96599,8.313326 5.89843,11.648437 0.14934,-0.04978 0.29989,-0.07617 0.44922,-0.07617 0.14933,0 0.64597,0.374427 1.49219,1.121094 0.99555,0.945778 1.96633,1.417969 2.91211,1.417969 1.14488,0 2.5898,-0.87106 4.33203,-2.613282 1.99111,-1.941333 3.43408,-3.060708 4.33008,-3.359374 1.49333,1.493333 2.83658,2.240234 4.03125,2.240234 0.29866,0 0.62225,-0.05083 0.9707,-0.150391 v -2.015625 c 0,-0.796444 0.0997,-1.419187 0.29883,-1.867187 -1.792,-1.045334 -3.03553,-2.712175 -3.73242,-5.001953 -0.39822,-1.244444 -0.74626,-3.458754 -1.04492,-6.644532 -0.24889,-3.036444 -0.62332,-5.252706 -1.1211,-6.646484 l -0.67187,-0.746094 c 0.24888,0.497778 0.37304,1.094127 0.37304,1.791016 0,0.696889 -0.12416,1.295191 -0.37304,1.792969 l -0.29883,-0.373047 c -0.0498,-0.199112 -0.17394,-0.522703 -0.37305,-0.970703 -0.14933,-0.448 -0.22461,-0.796034 -0.22461,-1.044922 0,-0.298667 0.0997,-0.573377 0.29883,-0.822266 -0.19911,-0.09956 -0.29883,-0.447588 -0.29883,-1.044922 -0.14933,0 -0.42209,-0.09972 -0.82031,-0.298828 -0.34845,-0.248889 -0.59871,-0.373047 -0.74805,-0.373047 -0.29866,0 -0.52254,0.223875 -0.67187,0.671875 l -0.59571,-0.671875 c -0.54756,0.348445 -1.07058,0.696477 -1.56836,1.044922 -0.59731,0.497777 -0.9209,1.069686 -0.9707,1.716797 0.14934,0.248889 0.32237,0.373047 0.52149,0.373047 0.0996,0 0.29899,-0.07332 0.59765,-0.222656 0.29867,-0.149336 0.54894,-0.200171 0.74805,-0.150391 0.0995,0.149333 0.14844,0.324326 0.14844,0.523437 0,0.248889 -0.12416,0.621363 -0.37305,1.119141 -0.19911,0.497777 -0.29883,0.896646 -0.29883,1.195313 0,0.248889 0.0753,0.472764 0.22461,0.671875 0.54755,0 0.87114,0.124157 0.9707,0.373047 0.0498,0.149333 -0.0499,0.399602 -0.29882,0.748046 -0.34845,-0.298668 -0.57233,-0.42478 -0.67188,-0.375 0.19911,1.144889 0.29883,2.365935 0.29883,3.660157 0,1.891556 -0.29915,4.653332 -0.89649,8.287109 -0.84622,1.095111 -1.6684,2.190046 -2.46484,3.285156 -1.04533,1.19467 -2.11582,1.766577 -3.21094,1.716797 -0.14933,0.04978 -0.29793,8.96e-4 -0.44726,-0.148437 -0.14936,-0.199111 -0.19824,-0.398545 -0.14844,-0.597657 0.14933,-0.447998 0.47098,-0.696313 0.96875,-0.746093 0.39823,0 0.79709,0.02444 1.19531,0.07422 0.69689,-0.647111 1.24435,-1.666769 1.64258,-3.060546 0.29867,-1.244445 0.59782,-2.46549 0.89649,-3.660157 -0.34845,0 -0.59676,0.225828 -0.7461,0.673828 -0.0995,0.398223 -0.27454,0.646539 -0.52344,0.746094 -0.34844,0.09956 -0.69647,-0.0246 -1.04492,-0.373047 -0.29866,-0.348444 -0.57338,-0.69843 -0.82226,-1.046875 -0.79645,-5.425777 -2.06442,-10.601297 -3.80664,-15.529297 h -0.59766 c 0.29867,2.588445 0.59782,5.150787 0.89648,7.689454 0.49778,2.837332 1.44216,5.102477 2.83594,6.794921 l -0.29883,0.373047 c -1.59288,-1.592888 -2.81197,-4.031073 -3.6582,-7.316406 -1.44355,-5.276444 -2.2149,-8.013779 -2.31445,-8.212891 z m 18.8164,0.373047 1.26953,10.154297 c 0.0498,0.199111 0.17395,0.522703 0.37305,0.970703 0.2489,0.398223 0.37305,0.672933 0.37305,0.822266 0,0.149333 -0.0244,0.273491 -0.0742,0.373047 0.54755,0.497778 0.89559,1.393278 1.04492,2.6875 0.2489,1.493333 0.52165,2.464109 0.82031,2.912109 h 0.29883 c -0.0498,-0.149333 -0.57084,-3.21026 -1.5664,-9.183594 -0.59734,-3.733333 -1.44396,-6.645661 -2.53907,-8.736328 z m 15.82227,0.671875 -0.67188,0.746094 h -0.37304 z m -78.46094,0.148438 c 0.896,4.67911 1.34375,8.562215 1.34375,11.648437 0,0.122893 -0.0203,0.225978 -0.0215,0.347656 -0.0135,-1.609156 -0.16757,-3.558792 -0.50196,-5.947265 -0.49775,-3.882667 -0.77051,-5.899495 -0.82031,-6.048828 z m -40.667967,0.298828 c 1.792,0.647111 3.310243,1.693163 4.554688,3.136719 1.343999,1.592889 2.088949,3.335007 2.238279,5.226562 l -0.894529,0.896484 c -0.547556,-3.235555 -1.245575,-5.301265 -2.091797,-6.197265 0,0.199111 -0.09972,0.471868 -0.298828,0.820312 -0.199111,0.298667 -0.298829,0.546983 -0.298828,0.746094 0,0.199111 0.09972,0.398545 0.298828,0.597656 -0.597334,-0.149333 -1.417558,-0.222656 -2.462891,-0.222656 -0.995555,-0.04978 -1.817732,-0.175889 -2.464844,-0.375 l -2.089843,0.298828 c 0.796444,-2.737777 1.966654,-4.380178 3.509765,-4.927734 z m -54.121094,1.044922 c 0.348445,8.113777 0.472603,14.237585 0.373047,18.36914 0.298667,1.045334 0.298667,1.668077 0,1.867188 -1.144888,-2.24 -1.792073,-5.47592 -1.941406,-9.707031 -0.248887,-6.272 -0.397486,-9.656519 -0.447266,-10.154297 0.04978,0.149333 -0.07633,0.397649 -0.375,0.746093 -0.348444,-0.298669 -0.572319,-0.422826 -0.671875,-0.373046 -1.194666,2.737778 -1.791015,5.774264 -1.791015,9.109375 0,4.081778 0.820224,8.038205 2.46289,11.871093 0.248889,0.497778 0.79831,0.945528 1.644532,1.34375 0.846222,0.348445 1.342854,0.871471 1.492187,1.56836 1.045333,-1.045334 1.668077,-2.736617 1.867188,-5.076172 0.298666,-3.036445 0.571423,-4.904674 0.820312,-5.601563 -0.199111,-2.538666 -0.372151,-5.076567 -0.521484,-7.615234 -0.348445,-2.936889 -1.319221,-5.053434 -2.91211,-6.347656 z m 176.759761,2.316406 c 1.84178,0 3.53306,0.472191 5.07618,1.417969 -1.09512,-0.547556 -2.43837,-0.822266 -4.03125,-0.822266 -1.44356,0 -3.30983,0.27471 -5.59961,0.822266 1.29422,-0.945778 2.81246,-1.417969 4.55468,-1.417969 z m -27.76953,0.746094 v 1.417969 l 0.29883,-0.373047 c 0,-0.547556 -0.0997,-0.895589 -0.29883,-1.044922 z m 27.54493,1.492187 c -0.74667,0.448 -1.44469,1.221295 -2.0918,2.316406 -1.14489,1.841778 -1.76568,2.812554 -1.86524,2.91211 -0.39822,-0.248889 -0.59765,-0.54804 -0.59765,-0.896484 0,-0.199112 0.0753,-0.473821 0.22461,-0.822266 0.14933,-0.398222 0.22265,-0.697374 0.22265,-0.896484 0,-0.24889 -0.0733,-0.44637 -0.22265,-0.595704 2.04088,-1.244444 3.48385,-1.918022 4.33008,-2.017578 z m -24.70704,0.970703 0.59571,0.748047 c -0.39822,0.199111 -0.59571,0.447427 -0.59571,0.746094 0,0.199111 0.17305,0.622421 0.52149,1.269531 0.39823,0.597334 0.52238,1.095918 0.37305,1.494141 0.14933,1.294222 -0.14787,2.362762 -0.89454,3.208984 V 39.96875 Z m -3.13671,1.792969 -0.29883,5.300781 h 0.29883 c 0.49777,-1.592888 0.49777,-3.359448 0,-5.300781 z M 87.474609,40.390625 c -0.07983,0.586019 -0.193359,1.181951 -0.193359,1.744141 0,0.896 0.09972,1.81594 0.298828,2.761718 -0.248889,-0.995555 -0.373047,-1.990772 -0.373047,-2.986328 0,-0.431951 0.214095,-1.04301 0.267578,-1.519531 z m 84.591801,2.638672 -0.96875,1.046875 c -0.34845,-0.298669 -0.57428,-0.42478 -0.67383,-0.375 l 0.29883,1.121094 c -0.94578,2.090666 -1.98988,5.723502 -3.13477,10.90039 -1.04533,4.828445 -2.21555,8.412398 -3.50977,10.751953 0.0498,2.090667 -0.64628,4.555245 -2.08984,7.392579 -1.69244,3.285333 -2.66321,5.625753 -2.91211,7.019531 2.83734,-5.525334 4.82776,-9.73203 5.97266,-12.619141 0.0498,-1.742222 0.89639,-4.007366 2.53906,-6.794922 1.59289,-2.588444 2.3134,-4.90247 2.16406,-6.943359 l -0.29883,-0.298828 0.67383,-0.746094 z m -36.14844,1.810547 c -0.0533,1.129199 -0.14682,2.21757 -0.3125,3.234375 0.20834,-0.979247 0.26374,-2.102801 0.3125,-3.234375 z m 20.0957,1.027344 2.39063,2.539062 0.67187,2.539062 z M 25.599609,47.435547 c 0.149334,0.746667 -0.04815,1.343016 -0.595703,1.791015 -0.19911,-0.796444 -0.0016,-1.392793 0.595703,-1.791015 z m 110.000001,0.662109 c -0.15282,0.931965 -0.30923,1.859891 -0.55664,2.697266 l -0.67188,0.748047 c 0.54599,-1.017521 0.95474,-2.167954 1.22852,-3.445313 z m -104.398438,1.802735 0.373047,1.791015 z m 6.289062,1.044921 1.71875,2.986329 v 0.373047 z m 154.517576,2.6875 c 0,0.09956 0.0733,0.347872 0.22266,0.746094 0.14933,0.298667 0.076,0.522542 -0.22266,0.671875 0,-0.597333 -0.0997,-0.945366 -0.29883,-1.044922 z m 15.44727,1.269532 h 0.67187 v 1.195312 z m -85.25391,0.373047 3.65821,0.373047 c -0.29867,0.248888 -0.69754,0.373046 -1.19532,0.373046 -0.896,0 -1.71622,-0.248315 -2.46289,-0.746093 z m -25.212889,0.447265 c -3.335111,1.045334 -5.575814,1.56836 -6.720703,1.56836 -0.846222,0 -1.642005,-0.124159 -2.388672,-0.373047 0.497778,0.09956 0.99441,0.15039 1.492188,0.15039 1.045333,0 2.339702,-0.174993 3.882812,-0.523437 1.941334,-0.497776 3.186819,-0.772486 3.734375,-0.822266 z" /></g>

</svg>