<?xml version="1.0" encoding="UTF-8" standalone="no"?>
<!-- Generator: Adobe Illustrator 16.0.0, SVG Export Plug-In . SVG Version: 6.00 Build 0)  -->

<svg
   xmlns:dc="http://purl.org/dc/elements/1.1/"
   xmlns:cc="http://creativecommons.org/ns#"
   xmlns:rdf="http://www.w3.org/1999/02/22-rdf-syntax-ns#"
   xmlns:svg="http://www.w3.org/2000/svg"
   xmlns="http://www.w3.org/2000/svg"
   xmlns:sodipodi="http://sodipodi.sourceforge.net/DTD/sodipodi-0.dtd"
   xmlns:inkscape="http://www.inkscape.org/namespaces/inkscape"
   version="1.1"
   id="Capa_1"
   x="0px"
   y="0px"
   width="32"
   height="32"
   viewBox="0 0 32 32.000001"
   xml:space="preserve"
   sodipodi:docname="rdt.svg"
   inkscape:version="0.92.4 (5da689c313, 2019-01-14)"><metadata
   id="metadata41"><rdf:RDF><cc:Work
       rdf:about=""><dc:format>image/svg+xml</dc:format><dc:type
         rdf:resource="http://purl.org/dc/dcmitype/StillImage" /><dc:title></dc:title></cc:Work></rdf:RDF></metadata><defs
   id="defs39" /><sodipodi:namedview
   pagecolor="#ffffff"
   bordercolor="#666666"
   borderopacity="1"
   objecttolerance="10"
   gridtolerance="10"
   guidetolerance="10"
   inkscape:pageopacity="0"
   inkscape:pageshadow="2"
   inkscape:window-width="1237"
   inkscape:window-height="684"
   id="namedview37"
   showgrid="false"
   inkscape:zoom="7.0799913"
   inkscape:cx="27.835446"
   inkscape:cy="18.299054"
   inkscape:window-x="0"
   inkscape:window-y="0"
   inkscape:window-maximized="0"
   inkscape:current-layer="Capa_1" />
<g
   id="g4"
   transform="matrix(0.06000009,0,0,0.06000009,0,0.02255163)">
	<path
   d="m 133.333,300 c 0,18.41 14.924,33.333 33.333,33.333 18.409,0 33.334,-14.923 33.334,-33.333 0,-18.41 -14.924,-33.333 -33.333,-33.333 -18.409,0 -33.334,14.923 -33.334,33.333 z m 200,0 c 0,18.41 14.924,33.333 33.333,33.333 18.409,0 33.334,-14.923 33.334,-33.333 0,-18.41 -14.924,-33.333 -33.333,-33.333 -18.409,0 -33.334,14.923 -33.334,33.333 z m 1.621,71.238 c 8.585,-6.763 21.029,-5.288 27.796,3.298 6.765,8.587 5.287,21.03 -3.3,27.796 -23.905,18.832 -60.324,31.001 -92.783,31.001 -32.459,0 -68.879,-12.169 -92.783,-31.001 -8.586,-6.766 -10.062,-19.209 -3.298,-27.796 6.765,-8.584 19.209,-10.061 27.794,-3.298 13.762,10.843 41.001,22.512 68.287,22.512 27.286,0 54.524,-11.669 68.287,-22.512 z M 533.333,233.333 c 0,-36.819 -29.849,-66.667 -66.667,-66.667 -25.06,0 -46.871,13.839 -58.256,34.282 -34.268,-18.747 -76.019,-30.857 -121.501,-33.65 l 39.782,-89.336 76.142,21.979 c 6.852,19.449 25.376,33.393 47.166,33.393 27.614,0 50,-22.386 50,-50 0,-27.614 -22.386,-50 -50,-50 -19.042,0 -35.595,10.647 -44.038,26.309 L 321.113,35.152 c -9.49,-2.739 -19.551,1.938 -23.567,10.964 L 243.498,167.484 C 199.156,170.607 158.466,182.6 124.938,200.94 113.55,180.497 91.727,166.667 66.666,166.667 29.848,166.667 0,196.515 0,233.333 c 0,27.246 16.355,50.653 39.777,60.991 -4.203,12.514 -6.444,25.575 -6.444,39.009 C 33.333,425.381 137.8,500 266.667,500 395.532,500 500,425.381 500,333.333 c 0,-13.434 -2.239,-26.491 -6.44,-39.003 23.42,-10.339 39.773,-33.75 39.773,-60.997 z M 450,64.583 c 10.355,0 18.75,8.395 18.75,18.75 0,10.355 -8.395,18.75 -18.75,18.75 -10.355,0 -18.75,-8.395 -18.75,-18.75 0,-10.355 8.394,-18.75 18.75,-18.75 z M 33.333,233.333 c 0,-18.38 14.953,-33.333 33.333,-33.333 13.285,0 24.777,7.814 30.128,19.087 C 79.374,232.298 64.937,247.536 54.26,264.261 42.008,259.33 33.333,247.329 33.333,233.333 Z m 233.334,227.084 c -107.005,0 -193.75,-56.897 -193.75,-127.084 0,-70.186 86.745,-127.083 193.75,-127.083 107.005,0 193.75,56.897 193.75,127.083 0,70.187 -86.746,127.084 -193.75,127.084 z M 479.073,264.261 C 468.396,247.536 453.96,232.297 436.539,219.086 441.89,207.814 453.381,200 466.667,200 c 18.38,0 33.333,14.953 33.333,33.333 0,13.996 -8.675,25.997 -20.927,30.928 z"
   id="path2"
   inkscape:connector-curvature="0" />
</g>
<g
   id="g6"
   transform="translate(-123.48973,-340.09275)">
</g>
<g
   id="g8"
   transform="translate(-123.48973,-340.09275)">
</g>
<g
   id="g10"
   transform="translate(-123.48973,-340.09275)">
</g>
<g
   id="g12"
   transform="translate(-123.48973,-340.09275)">
</g>
<g
   id="g14"
   transform="translate(-123.48973,-340.09275)">
</g>
<g
   id="g16"
   transform="translate(-123.48973,-340.09275)">
</g>
<g
   id="g18"
   transform="translate(-123.48973,-340.09275)">
</g>
<g
   id="g20"
   transform="translate(-123.48973,-340.09275)">
</g>
<g
   id="g22"
   transform="translate(-123.48973,-340.09275)">
</g>
<g
   id="g24"
   transform="translate(-123.48973,-340.09275)">
</g>
<g
   id="g26"
   transform="translate(-123.48973,-340.09275)">
</g>
<g
   id="g28"
   transform="translate(-123.48973,-340.09275)">
</g>
<g
   id="g30"
   transform="translate(-123.48973,-340.09275)">
</g>
<g
   id="g32"
   transform="translate(-123.48973,-340.09275)">
</g>
<g
   id="g34"
   transform="translate(-123.48973,-340.09275)">
</g>
</svg>