<?xml version="1.0" encoding="UTF-8" standalone="no"?>
<svg
   xmlns:dc="http://purl.org/dc/elements/1.1/"
   xmlns:cc="http://creativecommons.org/ns#"
   xmlns:rdf="http://www.w3.org/1999/02/22-rdf-syntax-ns#"
   xmlns:svg="http://www.w3.org/2000/svg"
   xmlns="http://www.w3.org/2000/svg"
   xmlns:xlink="http://www.w3.org/1999/xlink"
   xmlns:sodipodi="http://sodipodi.sourceforge.net/DTD/sodipodi-0.dtd"
   xmlns:inkscape="http://www.inkscape.org/namespaces/inkscape"
   viewBox="0 0 100.89211 52.17094"
   height="52.17094"
   width="100.89211"
   xml:space="preserve"
   id="svg2"
   version="1.1"
   sodipodi:docname="tribes-of-isoterra-logo.svg"
   inkscape:version="0.92.4 (5da689c313, 2019-01-14)"
   inkscape:export-filename="D:\artspace\ko-art\tribes-of-isoterra-logo.png"
   inkscape:export-xdpi="96"
   inkscape:export-ydpi="96"><sodipodi:namedview
   pagecolor="#ffffff"
   bordercolor="#666666"
   borderopacity="1"
   objecttolerance="10"
   gridtolerance="10"
   guidetolerance="10"
   inkscape:pageopacity="0"
   inkscape:pageshadow="2"
   inkscape:window-width="1920"
   inkscape:window-height="1057"
   id="namedview25"
   showgrid="false"
   inkscape:zoom="2.4022602"
   inkscape:cx="21.209443"
   inkscape:cy="25.865757"
   inkscape:window-x="-8"
   inkscape:window-y="-8"
   inkscape:window-maximized="1"
   inkscape:current-layer="svg2" /><metadata
   id="metadata8"><rdf:RDF><cc:Work
       rdf:about=""><dc:format>image/svg+xml</dc:format><dc:type
         rdf:resource="http://purl.org/dc/dcmitype/StillImage" /><dc:title></dc:title></cc:Work></rdf:RDF></metadata><defs
   id="defs6"><linearGradient
     inkscape:collect="always"
     id="linearGradient1235"><stop
       style="stop-color:#28d223;stop-opacity:1"
       offset="0"
       id="stop1231" /><stop
       style="stop-color:#f7f30f;stop-opacity:1"
       offset="1"
       id="stop1233" /></linearGradient><clipPath
     id="clipPath18"
     clipPathUnits="userSpaceOnUse"><path
       id="path16"
       d="M 0,64 H 177.333 V 0 H 0 Z"
       inkscape:connector-curvature="0" /></clipPath><linearGradient
     inkscape:collect="always"
     xlink:href="#linearGradient1235"
     id="linearGradient1237"
     x1="9.7947283"
     y1="15.280418"
     x2="63.690018"
     y2="77.923332"
     gradientUnits="userSpaceOnUse" /><linearGradient
     inkscape:collect="always"
     xlink:href="#linearGradient1235"
     id="linearGradient825"
     gradientUnits="userSpaceOnUse"
     x1="9.7947283"
     y1="15.280418"
     x2="63.690018"
     y2="77.923332" /></defs>

<text
   xml:space="preserve"
   style="font-style:normal;font-weight:normal;font-size:40px;line-height:1.25;font-family:sans-serif;letter-spacing:0px;word-spacing:0px;fill:#000000;fill-opacity:1;stroke:none"
   x="11.533765"
   y="36.42289"
   id="text817"><tspan
     sodipodi:role="line"
     id="tspan815"
     x="11.533765"
     y="72.9161" /></text>

<g
   aria-label="Tribes of"
   style="font-style:normal;font-variant:normal;font-weight:normal;font-stretch:normal;font-size:32px;line-height:1.25;font-family:PaintyPaint;-inkscape-font-specification:'PaintyPaint, Normal';font-variant-ligatures:normal;font-variant-caps:normal;font-variant-numeric:normal;font-feature-settings:normal;text-align:start;letter-spacing:0px;word-spacing:0px;writing-mode:lr-tb;text-anchor:start;fill:#000000;fill-opacity:1;stroke:none"
   id="text821"
   transform="translate(-0.8289609,-25.912112)" /><g
   aria-label="Isoterra"
   style="font-style:normal;font-variant:normal;font-weight:normal;font-stretch:normal;font-size:32px;line-height:1.25;font-family:PaintyPaint;-inkscape-font-specification:'PaintyPaint, Normal';font-variant-ligatures:normal;font-variant-caps:normal;font-variant-numeric:normal;font-feature-settings:normal;text-align:start;letter-spacing:0px;word-spacing:0px;writing-mode:lr-tb;text-anchor:start;fill:url(#linearGradient1237);fill-opacity:1;stroke:none"
   id="text1194"
   transform="translate(-9.5707283,-14.256422)"><path
     id="path1227"
     style="font-style:normal;font-variant:normal;font-weight:normal;font-stretch:normal;font-size:32px;font-family:PaintyPaint;-inkscape-font-specification:'PaintyPaint, Normal';font-variant-ligatures:normal;font-variant-caps:normal;font-variant-numeric:normal;font-feature-settings:normal;text-align:start;writing-mode:lr-tb;text-anchor:start;fill:url(#linearGradient825);fill-opacity:1"
     d="m 106.64526,64.219364 q -0.544,0.928 -1.408,1.536 -0.608,-0.064 -1.12,-0.768 -0.192,0.16 -0.416,0.16 -0.192,0 -0.576,-0.192 -0.384,-0.224 -0.544,-0.256 -0.96,-0.544 -2.368,-2.496 -0.543999,0.352 -1.535999,1.248 l 0.128,-1.408 0.288,0.32 q 0.224,-0.48 0.352,-1.344 0.192,-1.344 0.192,-1.44 0.096,-0.224 -0.064,-0.416 -0.192,-0.352 -0.192,-0.352 -0.672,0.736 -1.344,2.688 -0.672,1.92 -1.344,2.72 0.224,0.192 0.288,0.16 l 0.16,-0.16 0.128,0.16 q -0.544,1.088 -1.632,1.376 -1.088,0.16 -2.144,0.32 -1.92,-1.504 -1.92,-4.576 0,-3.904 1.92,-6.88 l 0.288,0.32 q 0.192,-0.192 0.256,-0.16 -0.736,2.016 -0.96,6.336 0.096,0.096 0.128,0.48 0.032,0.352 0.288,0.448 l 0.128,-0.128 q 0.064,0.224 0.288,0.608 -0.064,-0.608 -0.064,-1.184 0,-1.792 0.736,-4.096 0.64,-1.92 1.28,-3.84 -0.16,-0.32 -0.32,-0.32 -0.128,0 -0.384,0.224 -0.256,0.192 -0.416,0.192 -0.128,0 -0.288,-0.096 1.568,-1.728 4.192,-1.728 0.832,0 1.695999,0.16 1.184,0.256 2.112,2.176 0,-0.032 0,0.704 0.032,0.416 -0.288,0.544 0.928,4.704 2.528,7.104 -1.888,-1.728 -2.944,-5.728 -0.064,0.384 -0.064,0.768 0,3.04 3.008,5.44 l 0.832,0.448 q -0.352,0 -0.416,0.16 0.64,0.576 1.536,0.768 z m -0.832,0.608 q -0.576,-0.064 -1.536,0.16 0.992,0.16 0.896,0.16 0.416,0 0.64,-0.32 z m -5.728,-8.64 q -0.032,-1.248 -1.343999,-1.248 -0.448,0 -1.056,0.16 -1.376,1.248 -1.952,3.68 -0.352,2.176 -0.704,4.352 l 0.704,0.16 q 1.408,-0.512 2.144,-2.656 0.896,-2.72 1.504,-3.36 0.128,0.064 0.128,0.448 l 0.128,-0.16 q -0.032,-0.128 -0.032,-0.256 0,-0.288 0.224,-0.672 0.223999,-0.384 0.255999,-0.448 z m -4.223999,8.96 q -0.352,0.032 -0.704,0.096 -0.448,0.064 -0.544,0.384 z m -3.865,-11.2 -0.384,1.696 q -0.352,0.128 -0.704,0.128 -0.48,0 -1.376,-0.32 -0.864,-0.32 -1.344,-0.32 -0.352,0 -0.704,0.096 -1.184,0.96 -1.184,2.688 0,0.64 0.224,2.048 0.224,1.376 0.192,2.048 0.672,1.216 0.672,1.792 0,0.704 -0.576,1.344 -0.544,0.64 -1.216,0.704 -1.184,-0.672 -1.6,-1.92 -0.256,-0.864 -0.256,-2.496 0,-0.16 0,-0.48 0,-0.32 0,-0.48 0,-2.432 -0.768,-3.552 l 0.256,-0.288 -0.384,-0.416 q 0.128,-0.096 0.128,-0.224 0,-0.096 -0.192,-0.352 -0.192,-0.256 -0.192,-0.416 -0.032,-1.632 0.384,-2.4 0.096,0.16 0.16,0.16 0.064,0 0.192,-0.16 0.16,-0.16 0.288,-0.16 0.544,1.024 1.216,1.024 0.48,0 1.568,-0.832 1.088,-0.832 1.728,-0.736 2.912,0.032 3.872,1.824 z m -9.625,0 -0.384,1.696 q -0.352,0.128 -0.704,0.128 -0.48,0 -1.376,-0.32 -0.864,-0.32 -1.344,-0.32 -0.352,0 -0.704,0.096 -1.184,0.96 -1.184,2.688 0,0.64 0.224,2.048 0.224,1.376 0.192,2.048 0.672,1.216 0.672,1.792 0,0.704 -0.576,1.344 -0.544,0.64 -1.216,0.704 -1.184,-0.672 -1.6,-1.92 -0.256,-0.864 -0.256,-2.496 0,-0.16 0,-0.48 0,-0.32 0,-0.48 0,-2.432 -0.768,-3.552 l 0.256,-0.288 -0.384,-0.416 q 0.128,-0.096 0.128,-0.224 0,-0.096 -0.192,-0.352 -0.192,-0.256 -0.192,-0.416 -0.032,-1.632 0.384,-2.4 0.096,0.16 0.16,0.16 0.064,0 0.192,-0.16 0.16,-0.16 0.288,-0.16 0.544,1.024 1.216,1.024 0.48,0 1.568,-0.832 1.088,-0.832 1.728,-0.736 2.912,0.032 3.872,1.824 z m -10.1975,6.272 q -0.096,0.16 -0.16,0.16 -0.032,0 -0.16,-0.096 -0.128,-0.096 -0.192,-0.096 -0.064,0 -0.128,0.032 -0.096,0.608 -0.384,1.728 -0.128,-0.128 -0.256,-0.128 -0.128,0 -0.32,0.192 -0.256,0.32 -0.288,0.352 -0.032,0.064 0.128,0.256 0.512,-0.48 0.736,-0.416 l 0.128,0.16 q -2.144,3.232 -6.176,3.232 -0.48,0 -0.992,-0.064 0,0 -1.408,-0.576 -0.864,-0.32 -1.088,-1.024 -0.16,0.16 -0.32,0.16 -0.352,0 -0.704,-0.672 0.064,-0.192 0.064,-0.352 0,-0.384 -0.672,-1.376 -0.32,-0.832 -0.32,-1.664 0,-1.472 1.056,-3.296 0.96,-1.504 1.888,-2.976 h 0.256 q 0,0 -0.736,1.952 -0.416,1.216 -0.416,2.08 0,0.704 0.256,1.376 0.064,0.032 0.256,-0.128 -0.032,-0.48 0.256,-2.368 0.64,-2.08 2.016,-3.712 -0.064,-0.16 -0.16,-0.16 -0.096,0 -0.352,0.288 l -0.352,0.384 q -0.128,-0.512 0.288,-0.832 0.448,-0.32 0.832,-0.608 0.128,0.096 0.352,0.096 -0.256,0 0.896,-0.224 -0.192,0.64 -0.192,0.416 0,0.128 0.192,0.224 0.416,-0.512 0.96,-0.512 0.416,0 1.152,0.384 0.832,0.48 1.152,0.544 1.984,1.152 1.888,2.912 -0.064,1.12 -1.888,2.656 -0.384,-0.032 -0.896,0.352 -0.512,0.384 -0.832,0.448 -0.32,0.032 -0.576,0.032 -0.672,0 -2.464,-0.992 l -0.64,-1.056 q -0.512,0.544 -0.512,1.408 0,0.48 0.16,1.248 0.224,0.96 0.224,1.184 0.768,0.8 1.92,0.8 0.576,0 1.856,-0.256 1.28,-0.288 1.888,-0.256 0.32,-0.16 1.28,-0.864 0.768,-0.576 1.376,-0.608 0.16,0.192 0.128,0.256 z m -3.52,-2.496 q -0.096,-1.216 -0.96,-2.24 -0.8,-0.928 -1.952,-1.344 -0.992,0.352 -1.504,2.112 l 0.896,-0.128 q 0.416,0.128 1.056,0.16 0.672,0 1.056,0.096 -0.128,-0.128 -0.128,-0.256 0,-0.128 0.128,-0.32 0.128,-0.224 0.128,-0.352 0.544,0.576 0.896,2.656 z m -3.648,-4.512 q -0.256,0.288 -0.544,0.608 -0.288,0.288 -0.608,0.32 -0.32,1.056 -0.64,2.112 -0.384,1.248 -0.384,2.176 0,0.64 0.16,1.28 -0.128,-0.608 -0.128,-1.184 0,-2.336 2.144,-5.312 z m 2.016,11.136 q -0.352,0.032 -1.6,0.352 -0.992,0.224 -1.664,0.224 -0.32,0 -0.64,-0.064 0.48,0.16 1.024,0.16 0.736,0 2.88,-0.672 z m -6.9085,-11.424 q -0.224,-0.704 -0.672,-0.704 -0.096,0 -0.224,0.064 l -0.128,0.16 0.576,0.48 -0.896,0.832 q 0.128,0.16 0.416,0.16 0.448,-0.032 0.48,0 l 0.16,-0.16 v 0.32 q -1.152,0.448 -2.304,0.928 -1.376,0.576 -2.176,1.312 l 0.128,2.4 q 0,-0.064 -0.192,-1.216 -0.128,-0.736 -0.384,-1.024 -0.16,0.96 -0.16,2.048 0,1.6 0.448,4.704 0.064,-0.16 0.448,-0.16 -0.032,0.064 -0.256,0.288 -0.224,0.192 -0.224,0.352 0,0.064 0.032,0.16 0.608,0.192 0.608,0.8 0,0.224 -0.16,0.864 -0.16,0.608 -0.16,0.896 -0.16,-0.224 -0.128,-0.32 l 0.128,-0.16 q -0.128,-0.48 -0.96,-0.768 -0.736,-0.192 -0.672,-0.992 -0.256,-3.712 -1.056,-7.872 -0.48,-0.288 -1.728,-0.704 -1.12,-0.352 -1.696,-0.736 l 0.288,-0.32 q -1.12,-0.672 -1.344,-1.952 l 0.448,-0.48 q 0.896,-0.096 1.792,-0.224 1.088,-0.128 1.664,-0.576 -0.192,-1.536 -0.16,-3.648 0,-3.424 0,-3.744 l 0.16,-0.64 q 0.128,0.448 0.544,0.992 0.608,0.864 0.64,0.928 0.16,-0.064 0.16,-0.256 -0.032,-0.352 0,-0.384 l 0.288,0.32 0.896,6.112 0.288,0.32 q 1.152,-0.16 2.4,-0.16 1.28,0 2.4,0.16 0,0.416 0.16,0.48 l 0.128,-0.16 q 0.192,0.128 0.192,0.608 0,0.448 -0.192,0.672 z m -11.2815,4.416 q -0.288,4.384 -3.232,7.712 l -0.8,0.288 q 2.24,-1.984 2.816,-3.936 -0.192,-0.192 -0.256,-0.128 0.032,-0.544 0.448,-1.28 0.416,-0.768 0.48,-1.152 -0.736,-1.376 -1.472,-2.752 -0.992,-1.536 -2.144,-1.92 -0.16,-0.032 -0.288,-0.32 -0.096,-0.32 -0.16,-0.32 -0.096,0 -0.224,0.16 l 0.128,0.16 q -0.064,0.032 -1.504,0.32 -0.896,0.192 -1.44,0.736 0,0.384 0.352,1.056 0.352,0.672 0.352,0.992 0,0.288 -0.16,0.512 0,0.512 -0.128,1.504 -0.128,0.992 -0.128,1.408 0,1.248 0.768,1.952 1.472,-0.192 2.688,-1.216 1.216,-1.024 1.632,-2.56 0.064,0.384 0.064,0.768 0,1.376 -1.152,2.624 -1.056,0.928 -2.144,1.888 -0.288,0.128 -0.928,0.16 -0.032,-0.096 0.128,-0.32 -0.128,-0.16 -0.384,-0.16 -0.416,0.032 -0.416,0 -0.384,0.448 -0.448,0.48 -0.256,0.256 -0.512,0.288 -0.992,-0.736 -1.248,-2.4 -0.096,-0.672 -0.096,-2.88 0.512,-0.224 0.64,-1.024 0.128,-0.8 0.448,-0.96 -0.192,-0.32 -0.192,-0.672 0,-0.288 0.16,-0.8 0.16,-0.512 0.16,-0.8 0.928,-1.088 1.824,-2.176 1.152,-1.184 2.304,-1.184 0.224,0 0.448,0.064 3.808,2.688 3.616,5.888 z m -4.704,8.16 q -0.128,0.32 -0.544,0.32 -0.704,-0.032 -0.672,-0.032 -0.16,-0.192 -0.8,-0.384 -0.64,-0.224 -0.8,-0.512 0.768,0.064 2.144,-0.16 0.128,-0.064 0.224,-0.064 0.256,0 0.448,0.832 z m 2.144,-12.384 v -0.16 q -0.288,-0.448 -0.8,-0.448 z m -4.288,0.736 -0.672,0.768 z m -3.222,10.88 q -0.096,0.608 -0.736,0.896 -0.512,0.256 -1.056,0.512 -1.76,-0.384 -3.52,-0.768 -2.048,-0.544 -3.168,-1.76 l 0.352,-0.384 q -0.096,-0.224 -0.32,-0.256 -0.256,-0.032 -0.384,0.128 0.48,-0.224 0.48,-0.704 0,-0.416 -0.352,-0.928 -0.16,-0.192 -0.448,-0.032 -0.256,0.128 -0.384,-0.096 0.064,-0.192 0.352,-0.512 0.8,0.192 0.96,0 l 0.224,-0.224 0.128,0.128 q -0.128,0.032 -0.128,0.352 0.672,0.48 1.792,0.832 0.96,0.288 1.92,0.576 0.128,-0.192 0.128,-0.256 l -0.128,-0.128 q 0.416,0.064 1.184,-0.128 -0.8,-0.768 -3.104,-1.024 0.096,-0.128 0.48,-0.096 0.384,0 0.48,-0.256 -0.16,-0.512 -0.96,-0.896 -0.8,-0.416 -0.96,-0.896 -1.6,-1.472 -1.6,-2.944 0,-0.512 0.16,-1.056 -0.096,-0.16 -0.096,-0.288 0,-0.192 0.384,-0.448 0.416,-0.256 0.448,-0.544 0.224,-0.48 1.056,-0.928 0.864,-0.48 1.088,-0.96 0.704,-0.256 1.472,-0.256 2.304,0 3.68,2.016 0.064,1.44 -0.384,2.656 -0.512,-0.128 -1.664,-0.928 -1.056,-0.704 -1.728,-0.704 -0.448,0 -0.896,0.256 -0.704,0.352 -0.704,0.864 0,0.128 0.096,0.256 0.64,0.864 2.208,1.728 1.6,0.832 2.208,1.664 1.696,1.6 1.696,3.904 0,0.832 -0.256,1.632 z m -5.952,-12.32 q -0.416,0.224 -0.8,0.448 -0.48,0.288 -0.64,0.672 0,0 0.896,-0.352 0.576,-0.192 0.544,-0.768 z m 4.288,9.952 -0.48,0.128 h 0.352 z m -7.1345,-19.232 q 0.032,0.192 0.032,0.384 0,0.64 -0.512,1.12 -0.512,0.48 -1.024,0.928 -1.376,0.864 -4.416,1.344 -0.064,1.76 0.128,4.896 l -0.256,0.256 -0.256,9.344 q 0.576,0.384 1.6,0.512 0.832,0.096 1.696,0.192 0,0.128 -0.32,0.448 -0.32,0.288 -0.32,0.48 0,0.128 0.128,0.288 l 0.128,-0.16 q 0,0.288 -0.256,0.576 -0.256,0.256 -0.512,0.512 -0.256,-0.064 -0.608,0.128 0.096,0.064 0.096,0.416 -2.688,1.376 -4.288,1.376 -1.344,0 -2.24,-0.832 0.448,0.064 0.896,0.064 1.376,0 3.2,-0.704 1.536,-0.64 3.072,-1.248 0.128,-0.224 0.384,-0.672 -0.128,-0.064 -0.256,-0.064 -0.192,0 -0.608,0.224 -0.416,0.224 -0.64,0.224 -1.152,0.096 -2.144,0.832 -0.608,-0.064 -1.952,0.384 -1.344,0.448 -1.92,0.448 -1.152,0 -1.664,-1.248 -0.064,-0.192 -0.064,-0.352 0,-0.384 0.448,-0.704 0.384,-0.224 0.736,-0.416 0.768,0 1.536,0 0.992,-0.032 0.992,-0.736 0,-0.256 -0.128,-0.64 -0.128,-2.752 0.384,-7.584 0.192,-0.192 -0.128,-0.672 v -3.808 l 0.256,-0.256 q -0.736,-0.384 -0.256,-1.216 l 0.128,0.128 q 0.128,-0.128 0.128,-0.384 0,-0.384 0,-0.416 -0.384,-0.224 -1.696,-0.32 -1.088,-0.128 -1.568,-0.64 1.408,-0.096 2.816,-0.192 1.696,-0.096 2.592,-0.608 0.8,-0.032 2.144,-0.288 2.112,-0.384 2.24,-0.416 -0.32,-0.704 -0.896,-0.704 -0.352,0 -1.216,0.448 -0.864,0.416 -1.28,0.416 -2.048,0.544 -6.912,0.544 -0.128,-0.064 -0.64,-0.544 0.384,-0.352 0.8,-0.704 0.448,-0.352 0.832,-0.352 0.192,0 0.384,0.096 3.04,-1.664 6.176,-1.664 0.96,0 1.888,0.16 l 1.12,-0.128 q 0.64,0.224 1.248,0.448 0.704,0.32 0.768,1.056 z m -11.584,0.928 q -0.128,-0.128 -0.288,-0.128 -0.16,0 -0.416,0.128 -0.256,0.128 -0.288,0.16 z m 4.16,9.216 -0.128,2.848 q 0.384,-2.976 0.384,-4.672 0,-1.856 -0.384,-3.168 0.416,2.688 -0.128,4.608 z m -0.256,8 z m 0.896,0 v -2.176 q -0.128,0.256 -0.128,0.576 0,0.192 0.064,0.608 0.096,0.416 0.096,0.64 0,0.192 -0.032,0.352 z M 110.45323,21.456418 q -0.832,0.064 -0.896,0.992 v 0.192 q -1.248,-0.224 -1.92,-1.856 -0.896,-2.08 -1.376,-2.496 -0.224,-0.064 -0.448,-0.064 -1.184,0 -2.304,1.28 -0.864,1.152 -1.728,2.304 -0.576,0.992 -0.576,2.4 0,0.64 0.128,1.28 l 0.32,0.32 q 0.576,0.192 2.208,0.16 1.408,-0.032 2.112,0.352 -0.064,0.704 -0.832,0.704 -0.096,0 -0.384,-0.032 -0.256,0 -0.384,0 -0.416,0 -0.64,0.16 0.032,0.032 0.832,0.256 0.48,0.128 0.672,0.416 0.032,0 -1.056,-0.032 -0.736,0 -1.056,0.384 0.288,0.384 0.768,0.32 -0.416,0.192 -0.8,0.384 -0.48,0.224 -0.704,0.608 0.096,0.832 0.736,3.264 0.544,2.016 0.544,3.264 0,0.896 -0.224,1.696 -0.288,0.384 -0.704,0.352 -0.736,-0.032 -0.8,0 -0.768,-0.768 -1.088,-2.624 -0.352,-2.048 -0.832,-2.752 0.256,-0.064 0.256,-0.256 0,-0.096 -0.064,-0.288 -0.064,-0.192 -0.064,-0.288 0,-0.192 0.16,-0.352 -0.544002,-2.304 -1.504002,-3.008 0,-0.352 -0.128,-1.056 -0.096,-0.704 -0.096,-1.056 0,-0.864 0.544,-1.408 0.064,-0.288 -0.16,-0.672 l -0.448,0.832 q 0.064,-0.96 1.344,-3.168 0.160002,0.224 0.160002,0.416 0,0.192 -0.192002,0.512 -0.16,0.32 -0.16,0.48 0,0.224 0.192,0.416 0.064,-0.512 0.704002,-1.024 0.64,-0.544 0.768,-0.96 1.216,-2.656 3.296,-4.704 -0.16,-0.16 -0.352,-0.16 -0.128,0 -0.448,0.16 -0.288,0.128 -0.384,0.16 -0.768,0.512 -1.568,1.76 -0.96,1.472 -1.44,1.92 1.856,-2.848 2.432,-3.584 1.568,-1.888 3.264,-2.432 0.384,-0.128 0.736,-0.128 1.696,0 2.816,2.304 0.864,2.208 0.768,4.352 z m -12.305502,8.416 q -0.288,4.384 -3.232,7.712 l -0.8,0.288 q 2.24,-1.984 2.816,-3.936 -0.192,-0.192 -0.256,-0.128 0.032,-0.544 0.448,-1.28 0.416,-0.768 0.48,-1.152 -0.736,-1.376 -1.472,-2.752 -0.992,-1.536 -2.144,-1.92 -0.16,-0.032 -0.288,-0.32 -0.096,-0.32 -0.16,-0.32 -0.096,0 -0.224,0.16 l 0.128,0.16 q -0.064,0.032 -1.504,0.32 -0.896,0.192 -1.44,0.736 0,0.384 0.352,1.056 0.352,0.672 0.352,0.992 0,0.288 -0.16,0.512 0,0.512 -0.128,1.504 -0.128,0.992 -0.128,1.408 0,1.248 0.768,1.952 1.472,-0.192 2.688,-1.216 1.216,-1.024 1.632,-2.56 0.064,0.384 0.064,0.768 0,1.376 -1.152,2.624 -1.056,0.928 -2.144,1.888 -0.288,0.128 -0.928,0.16 -0.032,-0.096 0.128,-0.32 -0.128,-0.16 -0.384,-0.16 -0.416,0.032 -0.416,0 -0.384,0.448 -0.448,0.48 -0.256,0.256 -0.512,0.288 -0.992,-0.736 -1.248,-2.4 -0.096,-0.672 -0.096,-2.88 0.512,-0.224 0.64,-1.024 0.128,-0.8 0.448,-0.96 -0.192,-0.32 -0.192,-0.672 0,-0.288 0.16,-0.8 0.16,-0.512 0.16,-0.8 0.928,-1.088 1.824,-2.176 1.152,-1.184 2.304,-1.184 0.224,0 0.448,0.064 3.808,2.688 3.616,5.888 z m -4.704,8.16 q -0.128,0.32 -0.544,0.32 -0.704,-0.032 -0.672,-0.032 -0.16,-0.192 -0.8,-0.384 -0.64,-0.224 -0.8,-0.512 0.768,0.064 2.144,-0.16 0.128,-0.064 0.224,-0.064 0.256,0 0.448,0.832 z m 2.144,-12.384 v -0.16 q -0.288,-0.448 -0.8,-0.448 z m -4.288,0.736 -0.672,0.768 z m -19.222,10.88 q -0.096,0.608 -0.736,0.896 -0.512,0.256 -1.056,0.512 -1.76,-0.384 -3.52,-0.768 -2.048,-0.544 -3.168,-1.76 l 0.352,-0.384 q -0.096,-0.224 -0.32,-0.256 -0.256,-0.032 -0.384,0.128 0.48,-0.224 0.48,-0.704 0,-0.416 -0.352,-0.928 -0.16,-0.192 -0.448,-0.032 -0.256,0.128 -0.384,-0.096 0.064,-0.192 0.352,-0.512 0.8,0.192 0.96,0 l 0.224,-0.224 0.128,0.128 q -0.128,0.032 -0.128,0.352 0.672,0.48 1.792,0.832 0.96,0.288 1.92,0.576 0.128,-0.192 0.128,-0.256 l -0.128,-0.128 q 0.416,0.064 1.184,-0.128 -0.8,-0.768 -3.104,-1.024 0.096,-0.128 0.48,-0.096 0.384,0 0.48,-0.256 -0.16,-0.512 -0.96,-0.896 -0.8,-0.416 -0.96,-0.896 -1.6,-1.472 -1.6,-2.944 0,-0.512 0.16,-1.056 -0.096,-0.16 -0.096,-0.288 0,-0.192 0.384,-0.448 0.416,-0.256 0.448,-0.544 0.224,-0.48 1.056,-0.928 0.864,-0.48 1.088,-0.96 0.704,-0.256 1.472,-0.256 2.304,0 3.68,2.016 0.064,1.44 -0.384,2.656 -0.512,-0.128 -1.664,-0.928 -1.056,-0.704 -1.728,-0.704 -0.448,0 -0.896,0.256 -0.704,0.352 -0.704,0.864 0,0.128 0.096,0.256 0.64,0.864 2.208,1.728 1.6,0.832 2.208,1.664 1.696,1.6 1.696,3.904 0,0.832 -0.256,1.632 z m -5.952,-12.32 q -0.416,0.224 -0.8,0.448 -0.48,0.288 -0.64,0.672 0,0 0.896,-0.352 0.576,-0.192 0.544,-0.768 z m 4.288,9.952 -0.48,0.128 h 0.352 z m -7.8615,-2.144 q -0.096,0.16 -0.16,0.16 -0.032,0 -0.16,-0.096 -0.128,-0.096 -0.192,-0.096 -0.064,0 -0.128,0.032 -0.096,0.608 -0.384,1.728 -0.128,-0.128 -0.256,-0.128 -0.128,0 -0.32,0.192 -0.256,0.32 -0.288,0.352 -0.032,0.064 0.128,0.256 0.512,-0.48 0.736,-0.416 l 0.128,0.16 q -2.144,3.232 -6.176,3.232 -0.48,0 -0.992,-0.064 0,0 -1.408,-0.576 -0.864,-0.32 -1.088,-1.024 -0.16,0.16 -0.32,0.16 -0.352,0 -0.704,-0.672 0.064,-0.192 0.064,-0.352 0,-0.384 -0.672,-1.376 -0.32,-0.832 -0.32,-1.664 0,-1.472 1.056,-3.296 0.96,-1.504 1.888,-2.976 h 0.256 q 0,0 -0.736,1.952 -0.416,1.216 -0.416,2.08 0,0.704 0.256,1.376 0.064,0.032 0.256,-0.128 -0.032,-0.48 0.256,-2.368 0.64,-2.08 2.016,-3.712 -0.064,-0.16 -0.16,-0.16 -0.096,0 -0.352,0.288 l -0.352,0.384 q -0.128,-0.512 0.288,-0.832 0.448,-0.32 0.832,-0.608 0.128,0.096 0.352,0.096 -0.256,0 0.896,-0.224 -0.192,0.64 -0.192,0.416 0,0.128 0.192,0.224 0.416,-0.512 0.96,-0.512 0.416,0 1.152,0.384 0.832,0.48 1.152,0.544 1.984,1.152 1.888,2.912 -0.064,1.12 -1.888,2.656 -0.384,-0.032 -0.896,0.352 -0.512,0.384 -0.832,0.448 -0.32,0.032 -0.576,0.032 -0.672,0 -2.464,-0.992 l -0.64,-1.056 q -0.512,0.544 -0.512,1.408 0,0.48 0.16,1.248 0.224,0.96 0.224,1.184 0.768,0.8 1.92,0.8 0.576,0 1.856,-0.256 1.28,-0.288 1.888,-0.256 0.32,-0.16 1.28,-0.864 0.768,-0.576 1.376,-0.608 0.16,0.192 0.128,0.256 z m -3.52,-2.496 q -0.096,-1.216 -0.96,-2.24 -0.8,-0.928 -1.952,-1.344 -0.992,0.352 -1.504,2.112 l 0.896,-0.128 q 0.416,0.128 1.056,0.16 0.672,0 1.056,0.096 -0.128,-0.128 -0.128,-0.256 0,-0.128 0.128,-0.32 0.128,-0.224 0.128,-0.352 0.544,0.576 0.896,2.656 z m -3.648,-4.512 q -0.256,0.288 -0.544,0.608 -0.288,0.288 -0.608,0.32 -0.32,1.056 -0.64,2.112 -0.384,1.248 -0.384,2.176 0,0.64 0.16,1.28 -0.128,-0.608 -0.128,-1.184 0,-2.336 2.144,-5.312 z m 2.016,11.136 q -0.352,0.032 -1.6,0.352 -0.992,0.224 -1.664,0.224 -0.32,0 -0.64,-0.064 0.48,0.16 1.024,0.16 0.736,0 2.88,-0.672 z m -7.301,-4.288 q -1.152,2.592 -3.648,3.936 -2.144,1.152 -4.864,1.152 -0.224,0.032 -1.312,0.416 -0.832,0.288 -1.344,0.288 -0.256,0 -0.48,-0.064 -0.576,-0.512 -0.928,-1.568 -0.544,-1.6 -0.576,-1.696 0.064,-0.192 0.064,-0.384 0,-0.224 -0.16,-0.704 -0.192,-0.48 -0.192,-0.736 -0.096,-2.88 0.96,-4.064 0.16,-1.92 0.128,-5.056 0,-3.904 0.032,-5.024 0.064,-2.4 0.384,-4.16 0.32,-0.672 0.96,-0.672 0.48,0 0.864,0.384 0.416,0.352 0.512,0.928 l 0.416,9.184 0.416,0.48 q 2.496,-0.832 3.36,-0.832 0.608,0 1.152,0.16 4.128,4 4.256,8.032 z m -2.464,-2.784 -1.92,1.632 0.96,-0.48 z m -5.76,-2.304 h -0.416 l -0.288,0.192 z m 4.128,2.976 -0.16,-0.672 q -0.16,-0.48 -0.672,-0.896 -0.768,-0.672 -0.832,-0.736 -0.32,-0.16 -0.704,-0.16 -0.64,0 -1.632,0.48 -0.736,0.288 -0.96,1.024 -0.128,0.448 -0.128,1.536 0,1.088 -0.128,1.536 1.888,-0.48 2.688,-0.8 1.472,-0.512 2.528,-1.312 z m 3.008,-0.672 q -2.304,2.208 -4.544,2.944 -0.448,0.32 -2.336,0.416 -1.536,0.096 -2.048,1.056 2.496,-0.544 4.992,-1.056 2.816,-0.896 3.936,-3.36 z m -4.672,4.928 q -0.704,0.128 -1.984,0.192 -1.44,0.032 -1.984,0.128 0,0 -0.16,0.192 -0.16,0.16 -0.128,0.288 z m -5.76,-4.256 q -0.608,0.48 -0.96,1.952 h 0.288 q 0.032,-0.448 0.288,-1.024 0.352,-0.864 0.384,-0.928 z m 1.376,6.048 q -0.064,-0.16 -0.416,-0.16 -0.672,0.288 -0.544,0.8 0.128,0.096 0.224,0.096 0.192,0 0.32,-0.352 0.16,-0.384 0.416,-0.384 z m -3.4705,-13.504 q -0.448,0.64 -1.088,0.64 -0.384,0 -1.216,-0.32 -0.832,-0.32 -1.216,-0.32 -1.408,-1.216 -1.408,-2.656 0,-0.32 0.096,-0.672 l 1.024,-0.608 q -0.16,-0.096 -0.16,-0.32 0,-0.224 0.16,-0.32 0.032,0.032 0.64,0.192 0.384,0.128 0.512,0.448 0.16,-0.16 0.416,-0.16 0.48,0 1.056,0.48 1.248,1.504 1.248,2.976 0,0.32 -0.064,0.64 z m 0.288,10.08 q -0.16,0.448 -0.352,2.4 -0.128,1.504 -0.8,2.176 -0.096,-0.448 -0.64,-0.672 -0.544,-0.256 -0.704,-0.576 -1.056,-2.464 -1.056,-5.088 0,-2.144 0.768,-3.904 0.064,-0.032 0.288,0.16 0.192,-0.224 0.16,-0.32 0.032,0.32 0.192,4.352 0.096,2.72 0.832,4.16 0.192,-0.128 0,-0.8 0.064,-2.656 -0.16,-7.872 1.024,0.832 1.248,2.72 0.096,1.632 0.224,3.264 z m -2.496,-13.088 v -0.16 l -0.448,-0.448 z m 0.608,2.048 q 0,-0.992 -0.928,-1.28 -0.8,-0.224 -1.568,-0.448 l 1.312,0.64 q -0.224,0.16 -0.64,0.16 -0.64,0 -0.672,0 0.288,0.288 1.28,0.512 0.864,0.192 1.056,0.576 z m 0.128,14.208 v -0.16 l -0.736,-1.28 z m -3.513,-9.792 -0.384,1.696 q -0.352,0.128 -0.704,0.128 -0.48,0 -1.376,-0.32 -0.864,-0.32 -1.344,-0.32 -0.352,0 -0.704,0.096 -1.184,0.96 -1.184,2.688 0,0.64 0.224,2.048 0.224,1.376 0.192,2.048 0.672,1.216 0.672,1.792 0,0.704 -0.576,1.344 -0.544,0.64 -1.216,0.704 -1.184,-0.672 -1.6,-1.92 -0.256,-0.864 -0.256,-2.496 0,-0.16 0,-0.48 0,-0.32 0,-0.48 0,-2.432 -0.768,-3.552 l 0.256,-0.288 -0.384,-0.416 q 0.128,-0.096 0.128,-0.224 0,-0.096 -0.192,-0.352 -0.192,-0.256 -0.192,-0.416 -0.032,-1.632 0.384,-2.4 0.096,0.16 0.16,0.16 0.064,0 0.192,-0.16 0.16,-0.16 0.288,-0.16 0.544,1.024 1.216,1.024 0.48,0 1.568,-0.832 1.088,-0.832 1.728,-0.736 2.912,0.032 3.872,1.824 z m -10.185,-2.208 q -0.096,0.352 -0.128,1.184 v -1.184 z m -0.128,4.192 v -1.856 q 0.16,0.384 0.16,0.928 0,0.544 -0.16,0.928 z m 7.744,-12 q -1.056,-0.512 -1.12,-0.512 -0.288,0 -0.448,0.32 -2.56,0.352 -3.616,0.576 -1.984,0.384 -3.424,1.088 0.224,0.832 0.704,0.672 l 3.904,-0.672 q -0.16,0.224 -0.864,0.512 -1.12,0.48 -1.152,0.512 0.32,0.128 0.672,0.128 0.512,0 1.632,-0.608 1.024,-0.608 1.696,-0.544 -1.472,1.152 -5.728,2.176 -0.16,0.352 -0.16,0.96 0,0.96 0,1.056 0,-0.032 -0.416,-2.112 -0.224,-1.248 -0.864,-1.728 0.032,0.48 -0.256,1.344 -0.256,0.832 -0.256,1.184 0,0.256 0.064,0.48 l -0.288,0.48 q 0.16,2.624 0.16,5.44 0,2.784 -0.16,5.408 -0.576,1.216 -0.576,2.848 0,0.768 0.16,1.472 0,0.032 0.256,0.32 0.16,0.192 0.32,0.192 l 0.128,-0.16 q 0.064,-0.832 -0.128,-2.336 0.704,-1.792 0.544,-5.184 -0.224,-3.968 0.032,-5.312 -0.384,-2.72 0.128,-3.84 0.256,0.256 0.096,1.024 -0.16,0.64 0.352,0.8 0.128,1.568 0.128,3.36 0,2.496 -0.416,7.648 -0.32,0.16 -0.32,0.448 0,0.128 0.064,0.384 0.096,0.256 0.096,0.384 0,0.288 -0.288,0.448 0.128,1.664 -0.416,2.656 l 0.704,0.832 q -0.064,0.064 -0.128,0.064 -0.128,0 -0.384,-0.192 -0.256,-0.16 -0.352,-0.192 -0.736,-1.6 -0.736,-4 0,-0.864 0.128,-2.624 0.128,-1.792 0.128,-2.72 0,-0.896 -0.096,-1.664 0.48,-0.384 0.48,-1.312 0,-0.352 -0.192,-1.504 -0.192,-0.224 -0.288,-0.192 0.16,-0.672 0.16,-1.44 0,-1.536 -0.576,-2.72 l -6.208,-0.672 q -0.48,-0.544 -0.672,-0.544 -0.096,0 -0.192,0.064 -0.032,-0.096 -0.832,-1.376 -0.5439997,-0.864 -0.5439997,-1.472 0,-0.416 0.224,-0.832 3.2639997,-0.64 7.9359997,-0.8 1.408,-0.032 8.064,-0.032 1.184,0.32 1.664,0.544 0.896,0.416 1.472,1.12 z m -7.744,13.312 q -0.032,1.696 -0.032,3.392 -0.064,1.952 -0.704,2.944 0.576,-0.768 0.576,-2.08 0,-0.416 -0.096,-1.28 -0.064,-0.864 -0.064,-1.312 0,-0.96 0.32,-1.664 z m -3.456,-11.328 h -3.168 l -0.16,0.16 z m -6.208,-1.824 z m 2.176,1.824 -0.736,-0.16 z"
     inkscape:connector-curvature="0" /></g></svg>